<svg xmlns="http://www.w3.org/2000/svg" width="153" height="25"><g fill="#fff"><path d="M70.883 12.824c-1.309-1.27-3.031-1.914-5.164-1.914-2.133 0-3.832.668-5.184 2.004-1.308 1.316-1.996 2.973-1.996 4.98 0 2.118.664 3.801 1.996 5.094 1.352 1.266 3.05 1.914 5.16 1.914 2.067 0 3.785-.648 5.118-1.96.664-.645 1.214-1.407 1.535-2.258.343-.856.504-1.778.504-2.79.046-2.12-.641-3.804-1.97-5.07zm-2.207 8.16c-.73.782-1.696 1.172-3.004 1.172-1.121 0-2.156-.39-2.938-1.195-.777-.856-1.12-1.871-1.12-3.066 0-1.247.39-2.282 1.144-3.067.758-.785 1.746-1.176 2.914-1.176 1.125 0 2.11.391 2.89 1.176.782.785 1.149 1.797 1.149 3.067.047 1.242-.297 2.28-1.035 3.09zm13.168-3.992h-3.805v-3.086h4.402c.23 0 .391-.164.391-.394v-1.957c0-.23-.16-.39-.39-.39h-6.95c-.23 0-.39.16-.39.39V24.3c0 .23.16.39.39.39h2.156c.227 0 .391-.16.391-.39v-4.543h3.805c.23 0 .39-.16.39-.39V17.41c0-.254-.183-.418-.39-.418zm6.422-3.086v10.418c0 .23.16.39.39.39h2.156c.231 0 .391-.16.391-.39V13.906h3.719c.226 0 .39-.164.39-.394v-1.957c0-.23-.164-.39-.39-.39H84.55a.372.372 0 00-.387.39v1.957c0 .23.16.394.387.394zm12.203 5.184c.668.3 1.172.648 1.539.969.344.3.527.625.527.968 0 .371-.137.645-.39.875-.25.207-.598.301-1.008.301-.551 0-1.102-.137-1.653-.39-.39-.208-.734-.415-1.007-.715a.38.38 0 00-.555.023l-1.215 1.45c-.113.14-.113.3-.023.46.347.535.875.973 1.609 1.293.871.39 1.789.598 2.773.598 1.356 0 2.41-.367 3.282-1.125.734-.559 1.215-1.387 1.285-2.285.09-.922-.047-1.684-.39-2.328-.274-.532-.618-.922-1.013-1.2-.41-.297-.87-.55-1.351-.851-.504-.254-.965-.485-1.379-.645-.41-.207-.777-.418-1.098-.715-.273-.277-.457-.62-.457-1.015 0-.344.137-.621.387-.809.277-.207.645-.273 1.059-.273.457 0 .8.043 1.12.207.208.09.391.23.622.394.16.137.414.114.55-.093l1.126-1.57c.113-.16.09-.391-.047-.505-.899-.785-2.114-1.18-3.649-1.18-1.308 0-2.363.372-3.144 1.133-.778.762-1.168 1.657-1.168 2.72 0 .484.047.921.207 1.359.16.414.367.785.55 1.039.227.277.504.554.872.804.367.254.664.485.96.625.372.16.692.32 1.079.48zm13.168 5.328l2.8-8.785 2.82 8.785c.048.16.208.254.368.254h2.27c.16 0 .296-.117.367-.277l3.578-12.747c.047-.253-.113-.484-.363-.484h-2.024c-.16 0-.34.117-.363.277l-2.317 8.641-2.64-8.64a.393.393 0 00-.367-.278h-2.43c-.16 0-.3.117-.367.277l-2.524 8.664-2.297-8.64a.387.387 0 00-.363-.277h-2.523c-.254 0-.461.253-.367.484l3.761 12.746c.047.16.207.273.367.273h2.27a.427.427 0 00.344-.273zm14.797.254h2.152a.38.38 0 00.394-.395V11.531c0-.23-.164-.39-.394-.39h-2.152c-.23 0-.391.16-.391.39v12.746c.023.23.207.395.39.395zm8.945-5.582c.664.3 1.172.648 1.539.969.34.3.523.625.523.968 0 .371-.136.645-.39.875-.25.207-.594.301-1.008.301-.55 0-1.102-.137-1.648-.39-.391-.208-.739-.415-1.012-.715a.376.376 0 00-.551.023l-1.215 1.45c-.113.14-.113.3-.023.46.344.535.87.973 1.605 1.293.871.39 1.79.598 2.774.598 1.355 0 2.41-.367 3.285-1.125l.137-.117c.734-.715 1.167-1.66 1.167-2.653 0-.71-.136-1.312-.414-1.82-.273-.531-.617-.922-1.007-1.2-.414-.296-.871-.55-1.352-.85-.508-.255-.965-.485-1.379-.645-.414-.211-.777-.418-1.101-.715-.274-.277-.457-.621-.457-1.016 0-.344.136-.62.39-.808.274-.207.64-.274 1.055-.274.46 0 .8.043 1.125.207.203.09.39.23.617.395a.367.367 0 00.55-.094l1.126-1.57c.113-.16.09-.39-.047-.504-.895-.785-2.11-1.176-3.648-1.176-1.31 0-2.364.367-3.141 1.129-.777.758-1.168 1.656-1.168 2.719 0 .484.043.922.203 1.36.164.413.367.784.55 1.038.231.277.505.555.876.805.363.254.664.484.96.625.345.137.688.297 1.079.457zm10.344 0c.668.3 1.172.648 1.539.969.343.3.527.625.527.968 0 .371-.137.645-.39.875-.254.207-.598.301-1.008.301-.551 0-1.102-.137-1.653-.39-.39-.208-.734-.415-1.011-.715a.376.376 0 00-.551.023l-1.215 1.45c-.113.14-.113.3-.024.46.344.535.875.973 1.606 1.293.871.39 1.793.598 2.777.598 1.356 0 2.41-.367 3.282-1.125l.136-.117c.735-.715 1.168-1.66 1.168-2.653 0-.71-.136-1.312-.41-1.82a3.277 3.277 0 00-1.012-1.2c-.41-.296-.87-.55-1.351-.85-.504-.255-.965-.485-1.38-.645-.41-.211-.776-.418-1.097-.715-.273-.277-.46-.621-.46-1.016 0-.344.14-.62.39-.808.273-.207.644-.274 1.059-.274.457 0 .8.043 1.12.207.208.09.391.23.618.395.164.136.414.113.554-.094l1.122-1.57c.117-.16.093-.39-.043-.504-.895-.785-2.11-1.176-3.649-1.176-1.308 0-2.363.367-3.144 1.129-.778.758-1.168 1.656-1.168 2.719 0 .484.043.922.207 1.36.16.413.367.784.55 1.038.231.277.504.555.872.805.367.254.664.484.96.625.348.137.692.297 1.079.457zm-96.114 0c.668.3 1.172.648 1.54.969.343.3.527.625.527.968 0 .371-.137.645-.39.875-.255.207-.595.301-1.009.301-.55 0-1.101-.137-1.652-.39-.39-.208-.734-.415-1.008-.715a.376.376 0 00-.55.023l-1.215 1.45c-.118.14-.118.3-.024.46.344.535.871.973 1.606 1.293.87.39 1.789.598 2.773.598 1.355 0 2.41-.367 3.281-1.125l.114-.117a3.942 3.942 0 001.214-2.676c0-.711-.136-1.313-.41-1.867-.273-.528-.62-.922-1.011-1.196-.41-.3-.872-.554-1.352-.855-.504-.254-.965-.484-1.375-.645-.414-.207-.781-.414-1.102-.714-.273-.278-.46-.622-.46-1.012 0-.348.14-.625.394-.809.27-.207.64-.277 1.055-.277.457 0 .8.047 1.12.207.208.094.391.234.618.394.164.137.414.114.555-.093l1.12-1.567c.118-.164.094-.394-.042-.508-.895-.78-2.11-1.175-3.649-1.175-1.308 0-2.363.37-3.14 1.129-.782.761-1.172 1.66-1.172 2.722 0 .48.043.918.207 1.356.16.418.367.785.55 1.039.231.277.505.555.872.808.367.254.664.485.96.622.325.207.645.367 1.055.527zm-33.765-3.547a4.483 4.483 0 01-1.305-3.02l-4.242 4.262-4.406-4.422 4.406-4.425 1.305 1.312c.324.324.757.508 1.218.508.457 0 .89-.184 1.215-.508l1.856-1.867a1.738 1.738 0 000-2.442L13.51.56a1.728 1.728 0 00-1.214-.504c-.461 0-.895.183-1.219.504L.504 11.164a1.745 1.745 0 000 2.441l10.574 10.606c.324.32.758.504 1.219.504.457 0 .89-.184 1.215-.504l7.34-7.356a4.47 4.47 0 01-3.008-1.312zm0 0"/><path d="M41.496 13.605L30.922 24.211c-.32.32-.758.504-1.215.504-.46 0-.898-.184-1.215-.504l-4.383-4.406a1.745 1.745 0 010-2.442l1.86-1.867c.316-.32.754-.508 1.215-.508.457 0 .894.188 1.214.508l1.239 1.242.07.07 4.402-4.421-4.402-4.426-6.562 6.613a.359.359 0 01-.09.07 2.97 2.97 0 01-2.067.829 3.04 3.04 0 01-2.156-.899 3.039 3.039 0 01-.895-2.168c0-.781.278-1.52.829-2.074l.066-.07.023-.02.043-.023L28.492.605c.317-.32.754-.507 1.215-.507.457 0 .895.187 1.215.507l10.574 10.606c.64.621.64 1.703 0 2.394zm9.129-9.035v2.282H49.09V.168h2.062c.965 0 1.653.207 2.086.621.438.414.645.95.645 1.594 0 .62-.23 1.152-.688 1.59-.457.437-1.054.644-1.812.644-.32 0-.574-.023-.758-.047zm.688-2.996h-.688v1.524c.273.02.504.043.71.043.274 0 .481-.067.642-.207.187-.137.253-.344.253-.622.024-.484-.296-.738-.917-.738zm3.351 1.938c0-.992.32-1.797.984-2.469.692-.668 1.563-.988 2.618-.988 1.054 0 1.902.32 2.566.941.664.625 1.012 1.477 1.012 2.516 0 1.011-.348 1.843-1.035 2.488-.664.645-1.536.969-2.567.969-1.054 0-1.902-.324-2.594-.946-.64-.62-.984-1.476-.984-2.511zm1.652 0c0 .574.18 1.035.57 1.453.368.39.825.574 1.38.574.617 0 1.097-.184 1.445-.55.344-.395.5-.88.5-1.454 0-.601-.18-1.086-.547-1.453a1.96 1.96 0 00-1.398-.555c-.578 0-1.036.188-1.403.555-.367.348-.547.828-.547 1.43zM70.352.168h1.492l-1.906 6.684h-1.465l-1.399-4.286-1.402 4.286h-1.469L62.211.168h1.742l1.145 4.219L66.359.168h1.563l1.305 4.219zm6.585 6.684h-4.109V.168h4.016v1.43H74.39v1.175h2.18v1.43h-2.18v1.223h2.57v1.426zm3.118-2.329v2.352H78.52V.191h2.293c1.675 0 2.5.715 2.5 2.145 0 .922-.391 1.566-1.149 1.934l1.977 2.628h-1.883l-1.653-2.351h-.55zm.691-2.949h-.691v1.477h.55c.711 0 1.055-.254 1.055-.785.024-.438-.297-.692-.914-.692zm8.484 5.278h-4.105V.168h4.016v1.43h-2.454v1.175h2.176v1.43h-2.175v1.223h2.542zm1.743 0h-.16V.168h2.132c1.262 0 2.227.324 2.844.945.621.625.941 1.407.941 2.375 0 .989-.34 1.797-1.007 2.442-.664.644-1.63.968-2.868.968h-.847c-.278-.046-.645-.046-1.035-.046zm1.949-5.278c-.25 0-.434 0-.57.024v3.828c.183.023.367.023.546.023.692 0 1.22-.187 1.61-.531.39-.348.574-.832.574-1.453 0-.598-.207-1.059-.598-1.383-.367-.344-.894-.508-1.562-.508zm7.25 5.254V.191c.758-.046 1.445-.046 2.043-.046.754 0 1.308.14 1.695.437.39.3.574.691.574 1.223 0 .644-.254 1.152-.777 1.5v.023c.297.113.523.297.688.55.183.255.273.575.273.97 0 .668-.23 1.175-.711 1.543-.457.347-1.078.53-1.855.53-.872-.023-1.516-.046-1.93-.093zm2.156-2.672h-.598v1.246c.141.047.325.047.532.047.593 0 .894-.23.894-.715 0-.394-.277-.578-.828-.578zm-.113-2.605c-.113 0-.278.023-.485.047V2.82h.508c.48 0 .711-.207.711-.644a.537.537 0 00-.207-.438.804.804 0 00-.527-.187zm7.82-1.383h1.676l-2.387 3.965v2.719h-1.535v-2.72L105.402.169h1.766l1.445 2.535zm0 0"/></g></svg>