<svg width="57" height="30" fill="none" xmlns="http://www.w3.org/2000/svg"><g clip-path="url(#clip0_4853_338855)" fill-rule="evenodd" clip-rule="evenodd" fill="#fff"><path d="M.15 12.06c0 5.783 6.703 5.494 7.742 5.88 1.322.482 1.227 2.891-1.794 2.891-1.605 0-2.927-.193-4.438-.674-.378-.097-.756-.29-1.133-.386v4.337c1.133.578 5.004.675 6.61.675 4.154 0 7.93-2.892 6.892-7.229-1.038-4.722-7.081-4.24-7.931-4.722-1.039-.482-1.039-1.832.094-2.313 1.51-.675 4.533 0 6.043.482.472.192.945.385 1.322.481V7.338c-.66-.193-1.039-.385-2.36-.674-1.889-.386-2.644-.386-4.533-.386C3.265 6.278.15 8.591.15 12.061zM15.351 7.242V24.59h4.91v-5.205c.095.193 0 .097.095.29l.472.867c.189.385.377.771.566 1.253.189.482.756 2.217.756 2.795h5.948c-.094-.193-.189-.578-.283-.867l-1.133-2.603c-2.36-4.915-1.889-2.313.189-6.457.377-.578 1.416-2.795 1.51-3.566h-5.57c-.19.964-1.983 4.144-2.55 4.626V6.278c-.944 0-4.154.964-4.91.964zM44.717 7.145V24.59h4.721V6.278c-.755 0-3.683.771-4.721.867zM51.515 7.145V24.59h4.721V6.278c-.566 0-4.154.867-4.721.867zM28.948 16.88v7.71h4.721v-5.783c0-2.698.378-3.758 3.022-3.758V11c-.85 0-.095-.097-1.511 0-1.416.192-2.455.192-3.966 1.156-1.322.868-2.266 2.506-2.266 4.723zM38.107 24.59h4.721V11.193h-4.721V24.59zM38.202 7.435c0 .77.094 1.253.66 1.83 2.078 2.121 5.383-1.06 3.21-3.372-1.416-1.542-3.87-.193-3.87 1.542z"/></g><defs><clipPath id="clip0_4853_338855"><path fill="#fff" transform="translate(.15)" d="M0 0h56.087v30H0z"/></clipPath></defs></svg>