<svg width="81" height="32" fill="none" xmlns="http://www.w3.org/2000/svg"><path fill-rule="evenodd" clip-rule="evenodd" d="M4.214 16.967v1.495c0 2.08-.009 4.162.007 6.242.004.474-.116.72-.649.706a72.292 72.292 0 00-2.985-.003c-.44.006-.588-.176-.587-.61.01-4.645.01-9.29.003-13.936 0-.617.316-1.054.752-1.422 1.23-1.037 3.328-.686 4.116.713 1.077 1.917 2.044 3.892 2.998 5.873.125.258.268.507.407.766.285-.129.164-.351.165-.513.01-2.057.007-4.113.007-6.17 0-.96 0-.96.998-.96.752 0 1.508.046 2.256-.014.723-.06.965.154.951.913-.048 2.612-.018 5.226-.018 7.838 0 1.814.003 3.63 0 5.444-.003 1.06-.545 1.891-1.436 2.22-.951.35-1.895.076-2.608-.756-.414-.482-.712-1.037-1-1.596-1.074-2.082-2.142-4.169-3.212-6.252l-.165.022zm17.623-1.384a2.396 2.396 0 00-3.122.807c-.808 1.225-.76 2.98.114 4.165.758 1.024 2.161 1.31 3.4.68.758-.383 1.318-.968 1.747-1.695.658-1.12.465-.978 1.572-.438.63.307 1.252.637 1.878.951.324.163.484.357.303.749-1.525 3.305-4.575 5.519-8.615 4.802a5.513 5.513 0 01-2.932-1.514c-1.998-1.966-2.982-4.33-2.218-7.107.798-2.901 2.744-4.788 5.76-5.282 2.177-.356 4.124.338 5.677 1.961.555.58.983 1.258 1.425 1.923.235.353.19.586-.176.836a407.933 407.933 0 00-5.603 3.906c-.447.318-.731.347-1.021-.184a15.867 15.867 0 00-1.092-1.71c-.308-.424-.202-.687.192-.944.732-.475 1.456-.96 2.177-1.452.19-.13.446-.196.534-.454zm15.185 3.119c-.023-1.644-.867-2.604-2.268-2.58-1.346.022-2.417 1.213-2.405 2.675.01 1.43 1.038 2.503 2.387 2.492 1.064-.009 2.484-.811 2.286-2.587zm-2.389 6.993c-3.148.386-6.808-3.028-6.775-7.046.03-3.705 3.05-7.053 6.884-7.01 4.118.047 6.882 3.494 6.814 7.312-.079 4.335-3.924 7.046-6.923 6.744zm17.485-9.069c0-1.33.016-2.662-.009-3.992-.009-.471.158-.639.624-.629a66.65 66.65 0 003.13-.003c.522-.014.652.198.65.686-.02 2.42-.016 4.839-.006 7.257.003.78.453 1.306 1.12 1.37.647.06 1.2-.42 1.345-1.169.017-.094.03-.19.033-.288.025-.65.063-1.303.066-1.955.01-1.717.02-3.435-.004-5.152-.007-.545.155-.785.737-.765.993.033 1.99.021 2.985.002.495-.008.737.115.731.69-.03 2.54.076 5.084-.035 7.62-.145 3.3-2.436 5.548-5.51 5.403-.896-.042-1.788.006-2.641-.368-2.035-.893-3.192-2.78-3.252-5.152-.03-1.184-.005-2.37-.005-3.555h.041zm20.76 1.055c0-2.199-.006-4.399 0-6.598.007-2.734 2.09-4.81 4.832-4.822.776-.003 1.552.024 2.327.002.446-.013.67.094.654.6a60.753 60.753 0 00-.002 3.116c.01.426-.169.553-.56.54-.508-.015-1.017-.004-1.527 0-.294.002-.585.039-.8.27a.947.947 0 00-.224.945c.09.279.42.153.647.158.629.016 1.261.026 1.89.003.447-.016.59.164.58.598a70.297 70.297 0 00-.002 3.046c.01.44-.158.61-.596.596-.654-.02-1.31.028-1.962-.015-.552-.037-.708.167-.704.701.022 2.562-.016 5.125.025 7.686.012.73-.183.983-.937.932-.989-.068-1.987-.038-2.98-.007-.49.014-.698-.123-.693-.645.02-2.369.009-4.737.009-7.105h.022zM44.83 25.404c-.776 0-1.553-.022-2.328.008-.469.02-.658-.142-.648-.615.02-.919.02-1.838 0-2.756-.01-.435.154-.596.594-.586 1.018.023 2.036.007 3.054.007.17 0 .34.003.51-.005.255-.012.506-.091.579-.35.083-.3-.178-.41-.397-.519-.735-.37-1.484-.711-2.201-1.108-1.632-.902-2.271-2.44-1.914-4.514.237-1.375 1.661-2.684 3.271-2.896 1.59-.21 3.195-.066 4.793-.079.337-.002.485.163.484.489a737.67 737.67 0 000 2.9c.002.389-.218.475-.564.47-.945-.014-1.89-.004-2.836-.004-.295 0-.64-.018-.716.34-.082.37.27.473.526.589.882.402 1.746.836 2.566 1.352 1.403.883 2.093 2.514 1.72 4.06-.441 1.824-1.694 2.953-3.443 3.138-1.016.108-2.033.083-3.05.08zm23.774-11.91c.907-1.075 1.854-1.604 3.1-1.512.487.035.696.166.68.68-.025.99-.026 1.98-.001 2.971.01.443-.113.649-.6.68-1.942.128-2.614.194-2.605 2.969.006 1.788-.02 3.576.017 5.364.014.62-.21.789-.796.77a66.565 66.565 0 00-3.272-.007c-.428.007-.604-.135-.603-.585.012-4.083.012-8.167 0-12.25-.001-.466.22-.582.621-.579.873.006 1.747.03 2.617-.01.64-.03.971.15.846.845-.025.14-.003.287-.003.664" fill="#fff"/></svg>