<svg width="96" height="32" fill="none" xmlns="http://www.w3.org/2000/svg"><path fill-rule="evenodd" clip-rule="evenodd" d="M48.046 6.368c.644 0 1.29-.002 1.935-.005 1.179 2.011 2.29 4.059 3.487 6.06-.013-2.022-.002-4.041-.01-6.06.545.003 1.088.005 1.63.005.014 2.878-.002 5.756.011 8.634-.625-.003-1.25-.008-1.872-.013-1.157-2.067-2.35-4.114-3.542-6.162.026 2.058.002 4.114.023 6.172h-1.673c.014-2.875-.002-5.753.01-8.63zm8.769 0l1.822-.002c-.008 1.21-.006 2.422-.006 3.632 1.11-1.223 2.256-2.412 3.384-3.62.776-.01 1.553-.015 2.33-.015-1.17 1.168-2.534 2.252-3.572 3.527 1.186 1.702 2.46 3.352 3.68 5.033-.749-.047-1.673.092-2.375-.12-.932-1.187-1.736-2.483-2.61-3.711-.305.29-.609.584-.914.875-.01.98-.01 1.96-.002 2.94-.58-.002-1.16-.005-1.737-.005.003-2.843-.003-5.69 0-8.534zM41.594 11.713c.302-.857.606-1.713.895-2.574.1-.301.203-.603.304-.904.386 1.155.733 2.323 1.12 3.478h-2.32zm2.197-5.347c-.675-.003-1.36-.032-2.03.034-1.105 2.79-2.037 5.687-3.077 8.507.62-.002 1.239-.01 1.858-.018.188-.573.376-1.147.561-1.72 1.094-.006 2.185-.006 3.278-.01.17.614.34 1.227.514 1.842.646-.002 1.295-.005 1.944-.002-1.044-2.867-2.036-5.756-3.048-8.633zM35.1 13.334c-.924.27-1.999.128-2.957.143-.006-.8-.008-1.6-.006-2.398 1.065.042 2.455-.152 3.416.364.522.563.296 1.616-.453 1.89zm.005-5.381c.75.248.678 1.456-.037 1.675-.93.23-1.97.131-2.923.139-.005-.634-.008-1.269-.008-1.903.971.023 2.015-.11 2.968.089zm1.298 2.385c.791-.652 1.096-1.129.947-2.192-.153-1.204-1.35-1.754-2.451-1.843-1.491-.087-2.992-.008-4.488-.034.035 2.878.013 5.755.013 8.633 1.568-.018 3.14.045 4.705-.026.7-.029 1.33-.241 1.785-.786.995-1.097.908-3.032-.511-3.752zm33.754 6.924c.766.518.938 1.272 1.141 2.113-.563.002-1.127.002-1.691-.003-.268-.453-.4-.922-.943-1.118-.58-.17-1.287-.197-1.864-.003-.609.265-.897.948-.485 1.511 1.322.715 3.05.705 4.358 1.438.914.568.98 1.718.753 2.658-.284.913-1.076 1.45-1.97 1.694-1.42.369-3.124.22-4.313-.694-.681-.54-.76-1.257-.916-2.048.585-.002 1.17-.002 1.752.005.21.438.28 1.016.79 1.215.749.191 1.686.27 2.424-.005.639-.306.88-1.15.244-1.587-1.21-.686-3.227-.51-4.371-1.453-1.149-1.008-.789-3.208.593-3.875 1.282-.702 3.293-.715 4.498.152zm-40.04-.467c2.386-.052 4.774-.013 7.162-.02 0 .507 0 1.015.003 1.523-.882-.01-1.761-.013-2.643-.013-.002 2.386.003 4.771 0 7.157H32.74c-.003-2.386 0-4.771 0-7.16-.884.006-1.769.006-2.653.006.01-.498.018-.995.03-1.493zm25.806-.02c.644-.003 1.287-.003 1.928-.006 1.152 2.009 2.272 4.035 3.458 6.023.032-2.006.003-4.015.016-6.02h1.642c.005 2.89.005 5.779.002 8.67-.614 0-1.226 0-1.838.002-1.188-2.055-2.35-4.124-3.558-6.17a265.201 265.201 0 00-.008 6.168h-1.65c.019-2.889.003-5.777.008-8.668zm16.946 0c2.051-.008 4.1 0 6.153-.006.008.508.013 1.016.02 1.524-1.474-.01-2.949-.005-4.42-.008-.003.663-.003 1.323-.006 1.983 1.276.002 2.552.002 3.829-.003 0 .49-.003.977-.003 1.466a102.68 102.68 0 00-3.813-.008 281.22 281.22 0 00-.008 3.617c-.588 0-1.173 0-1.758.002.013-2.857 0-5.711.006-8.568zm7.476 0c2.116-.006 4.234 0 6.35-.006.002.508.002 1.014.005 1.521-1.541-.005-3.085-.005-4.628 0 .002.629.002 1.255.002 1.883 1.415-.012 2.83-.014 4.245-.008v1.459c-1.417 0-2.834-.005-4.25.003.003.748.003 1.5 0 2.249 1.613-.008 3.225-.005 4.837-.005.003.524.003 1.047.005 1.57h-6.573c.01-2.888 0-5.779.007-8.667zm-37.37 3.823c-.917.164-1.904.05-2.837.07.003-.79.006-1.584.006-2.375.879.008 1.803-.081 2.669.07.791.414 1.032 1.777.161 2.235zm1.924 1.495c-.215-.301-.572-.514-.863-.741 1.358-.624 1.692-2.292.884-3.478-.532-.827-1.416-1.026-2.346-1.081-1.393-.06-2.79-.003-4.185-.024-.046 2.891.01 5.782-.032 8.673h1.8a151.454 151.454 0 01-.01-3.418c.815.095 2.517-.314 3.004.493.283.895.138 1.985.234 2.925.698-.003 1.397 0 2.096.016-.58-1.116-.066-2.273-.582-3.365zm48.123-1.472c-.908.118-1.85.037-2.766.047a360.85 360.85 0 010-2.372c.902.01 1.938-.12 2.803.165.72.382.845 1.885-.037 2.16zm2.004 1.623c-.132-.465-.595-.696-.947-.99.386-.282.807-.5 1.035-.934.543-1.03.18-2.456-.81-3.093-.773-.463-1.607-.52-2.491-.526-1.166 0-2.328.01-3.493.005 0 2.878.013 5.759-.008 8.636l1.756-.007c-.013-1.146-.015-2.29-.006-3.436.855.068 2.182-.204 2.894.327.48.862.23 2.137.421 3.111.702 0 1.4.005 2.102.026-.465-1.029-.158-2.074-.453-3.119zm-45.547-.102c.41-1.084.715-2.207 1.168-3.275.575.966.73 2.228 1.146 3.278-.773-.003-1.543-.003-2.314-.003zm2.147-5.38c-.635.002-1.278-.022-1.91.038-.224.241-.316.61-.438.912a366.237 366.237 0 01-2.735 7.732c.622-.002 1.244-.002 1.867-.002.198-.59.4-1.176.603-1.765 1.086-.003 2.171-.003 3.257 0 .166.586.334 1.173.5 1.762.649.003 1.297.003 1.946.005-1.064-2.883-2.018-5.802-3.09-8.683zM2.957 11.828c1.538.015 3.077-.004 4.614.011l.004 1.092-.814.017c-.007 2.756-.003 5.51-.002 8.266l.81.011.005 1.022c-1.538.018-3.079-.001-4.617.012.002-.352.002-.706.002-1.06.284.01.568.017.851.025.004-2.764.002-5.528.002-8.291l-.853.011c0-.373 0-.743-.002-1.116zm7.116.02c1.522-.045 3.05.006 4.572-.02l.002 1.114-.78-.007c-.012 2.763.007 5.527-.012 8.29l.792-.028v1.064c-1.53-.01-3.06-.008-4.589-.002 0-.346 0-.693-.002-1.04.262-.001.521-.003.783-.003.006-2.756-.006-5.514.006-8.27l-.783-.008c-.004-.363-.016-.728.011-1.09zm7.004-.015c1.554-.003 3.106.008 4.658-.007.002.373.002.745.002 1.118l-.822-.007c0 2.761-.002 5.523 0 8.287l.824-.023-.004 1.06c-1.552-.01-3.105-.01-4.658-.002l-.005-1.054.863.017c-.011-2.764-.002-5.526-.006-8.287-.285.002-.571.005-.855.01 0-.372.002-.74.003-1.112zM1.565 22.956c7.188.007 14.376.002 21.563.003 0 .23 0 .463.003.693-7.188-.004-14.376-.001-21.564-.001-.002-.232-.002-.463-.002-.695zM.178 25.045c8.115-.001 16.23-.003 24.344 0v.693c-8.115 0-16.233-.005-24.348.001.002-.23.004-.463.004-.694zM12.312 3.478c3.614 1.515 7.196 3.12 10.806 4.643.02 1.002.01 2.005.01 3.01-7.18-.004-14.363-.002-21.545-.002-.012-.995.004-1.988-.018-2.983 3.576-1.564 7.156-3.138 10.747-4.668z" fill="#fff"/></svg>