<svg width="137" height="26" fill="none" xmlns="http://www.w3.org/2000/svg"><path fill-rule="evenodd" clip-rule="evenodd" d="M133.813 13.046V5.944h-1.72v4.118a3.002 3.002 0 00-2.496-1.154c-2.215 0-3.961 1.73-3.961 4.135 0 2.404 1.737 4.134 3.961 4.134.971.041 1.901-.389 2.496-1.154v.954h1.72v-3.931zM82.552 9.108h2.81l-.004 1.566h-2.81v3.56c0 .789.285 1.315 1.143 1.315a3.184 3.184 0 001.522-.444l.495 1.467c-.645.4-1.39.611-2.15.609-2.033 0-2.742-1.089-2.742-2.918v-3.589H79.21V9.108h1.605V6.72h1.736v2.388zM59.67 12.05v4.934h-1.74v-4.381c0-1.336-.594-2.076-1.736-2.076s-1.935.724-1.935 2.092v4.365h-1.726v-4.381c0-1.336-.545-2.076-1.72-2.076-1.175 0-1.934.724-1.934 2.092v4.365h-1.736V9.102h1.72v.987a2.617 2.617 0 012.31-1.171 2.904 2.904 0 012.611 1.401 3.063 3.063 0 012.776-1.401c1.918.016 3.11 1.27 3.11 3.131zm40.357-3.138a2.332 2.332 0 00-2.083 1.155v-.958h-1.703v7.875h1.72V12.57c0-1.316.56-2.026 1.686-2.026.369-.006.734.061 1.077.197l.528-1.615a3.685 3.685 0 00-1.225-.214zm-25.397 0a5.925 5.925 0 013.225.822l-.74 1.389a5.107 5.107 0 00-2.462-.675c-.944 0-1.505.346-1.505.921 0 .527.597.675 1.34.773l.808.116c1.717.246 2.76.97 2.76 2.355 0 1.496-1.324 2.569-3.605 2.569a5.715 5.715 0 01-3.423-1.023l.783-1.333a4.222 4.222 0 002.64.823c1.176 0 1.803-.349 1.803-.957 0-.444-.45-.691-1.39-.823l-.809-.115c-1.769-.246-2.726-1.036-2.726-2.322 0-1.563 1.3-2.52 3.3-2.52zm49.28 0a2.332 2.332 0 00-2.083 1.155v-.958h-1.703v7.875h1.72V12.57c0-1.316.561-2.026 1.686-2.026.369-.006.734.061 1.076.197l.529-1.615a3.69 3.69 0 00-1.225-.214zm-17.931 8.27c-2.545 0-4.216-1.747-4.216-4.135v-.007c0-2.388 1.671-4.134 4.216-4.134a4.148 4.148 0 012.842.94l-.825 1.385a3.482 3.482 0 00-2.067-.707c-1.37.016-2.38 1.007-2.38 2.52 0 1.513 1.007 2.52 2.38 2.52a3.482 3.482 0 002.067-.708l.825 1.385a4.148 4.148 0 01-2.842.94zm11.887-4.135V9.099h-1.72v.957A3.002 3.002 0 00113.65 8.9c-2.215 0-3.961 1.73-3.961 4.135s1.737 4.135 3.961 4.135c.971.04 1.901-.39 2.496-1.155v.954h1.72v-3.924zm-4.001-2.52c-1.489 0-2.397 1.135-2.397 2.52 0 1.382.908 2.52 2.397 2.52 1.423 0 2.38-1.09 2.38-2.52 0-1.431-.957-2.52-2.38-2.52zM90.719 8.911c-2.311 0-3.935 1.681-3.935 4.135 0 2.503 1.687 4.135 4.05 4.135a4.814 4.814 0 003.242-1.105l-.842-1.27a3.774 3.774 0 01-2.31.822c-1.11 0-2.117-.51-2.364-1.928h5.869c.016-.213.033-.427.033-.657 0-2.454-1.538-4.135-3.753-4.135l.01.003zm1.967 3.444c-.182-1.22-.89-1.91-1.999-1.911-1.224 0-1.916.773-2.098 1.911h4.097zm43.335 3.94a.502.502 0 00-.194-.039h.003a.514.514 0 00-.482.306.494.494 0 000 .389.51.51 0 00.475.305.495.495 0 00.36-.148.485.485 0 000-.704.517.517 0 00-.162-.108zm-.192.85a.377.377 0 00.268-.112.39.39 0 10-.66-.35.388.388 0 00.105.35.39.39 0 00.287.112zm0 0h-.006.006zm.162-.586a.211.211 0 00-.138-.04l-.215.004v.46h.099v-.174h.047l.141.174h.119l-.152-.174a.182.182 0 00.109-.046.123.123 0 00.04-.095.131.131 0 00-.05-.109zm-.254.046v.125h.116a.11.11 0 00.062 0 .05.05 0 00.023-.046.05.05 0 00-.023-.046.11.11 0 00-.062 0l-.116-.033zm-5.919-6.079c-1.488 0-2.396 1.135-2.396 2.52 0 1.382.908 2.52 2.396 2.52 1.423 0 2.38-1.09 2.38-2.52 0-1.431-.957-2.52-2.38-2.52zm-60.46 2.52V9.099h-1.72v.957a3.002 3.002 0 00-2.486-1.145c-2.214 0-3.96 1.73-3.96 4.135s1.736 4.135 3.96 4.135c.971.04 1.901-.39 2.496-1.155v.954h1.72l-.01-3.934zm-4-2.52c-1.49 0-2.397 1.135-2.397 2.52s.907 2.52 2.396 2.52c1.423 0 2.38-1.09 2.38-2.52 0-1.431-.957-2.52-2.38-2.52z" fill="#fff"/><path fill="#BFBFC2" d="M14.8 3.684h10.398v18.622H14.8z"/><path d="M15.46 13a11.807 11.807 0 014.538-9.31C15.127-.124 8.13.43 3.925 4.969a11.812 11.812 0 000 16.068c4.204 4.536 11.201 5.092 16.073 1.276A11.807 11.807 0 0115.46 13z" fill="#919195"/><path fill-rule="evenodd" clip-rule="evenodd" d="M39.227 13c0 4.534-2.598 8.67-6.69 10.651a11.918 11.918 0 01-12.538-1.342 11.827 11.827 0 004.54-9.31c0-3.634-1.674-7.066-4.54-9.312a11.918 11.918 0 0112.539-1.34A11.839 11.839 0 0139.227 13z" fill="#fff"/><path fill-rule="evenodd" clip-rule="evenodd" d="M38.847 19.872v.46l-.086.003v-.348l-.129.3h-.089l-.128-.3v.345h-.07v-.46h.123l.138.329.139-.33h.102zm-.762.079v.381l-.076.003v-.381h-.155v-.079h.386v.076h-.155z" fill="#F79E1B"/></svg>