<svg width="97" height="30" fill="none" xmlns="http://www.w3.org/2000/svg"><g clip-path="url(#clip0_4853_338856)" fill="#fff"><path d="M84.677 13.82c-.48.31-1.277.464-2.235.464h-.958l.639-4.019h.798c.798 0 1.436.155 1.915.31.32.309.639.618.639 1.545 0 .927-.32 1.391-.798 1.7zm-60.338 5.1h-7.821l.479-2.781h4.948l.479-2.937h-4.789l.479-2.628h7.821l-1.596 8.347zM88.987 8.257c-1.277-.773-3.033-1.082-5.268-1.082h-5.906L75.578 18.92h-7.821l.478-2.782h4.63l.638-2.937h-4.789l.639-2.628h4.788l.639-3.4h-9.897l-2.075 11.129h-3.671l2.235-11.13h-5.268l-2.075 11.13h-3.512l2.075-11.13h-5.108L45.25 18.922h-7.822l.48-2.782h4.628l.639-2.937h-4.789l.479-2.628h4.948l.639-3.4H13.644l-1.755 9.274-3.353-9.274H3.11L.236 22.32h5.108L7.1 12.738l3.352 9.583h18.357l2.234-11.747h2.873l-2.234 11.747h48.206l1.437-7.419 2.234 7.42h5.108l-2.394-6.029.638-.154c1.118-.31 2.076-.773 2.714-1.546.638-.773.958-1.855.958-3.091 0-1.391-.48-2.473-1.596-3.246zm4.15 12.21h1.117c0-.154 0-.154.16-.154v-.31c0-.154 0-.154-.16-.308h-1.117v.772zm-.32 1.392v-2.319l.958-.155h.639c0 .155.16.155.16.31.159 0 .159.154.159.309 0 .154 0 .309-.16.463 0 .155-.319.155-.479.31h.16l.32.309.478.618h-.479l-.319-.464c0-.154-.16-.154-.16-.309-.16 0-.16-.154-.16-.154h-.797v1.082h-.32z"/><path d="M91.855 20.554c0-.483.164-.966.49-1.288.328-.322.818-.644 1.308-.644 1.145 0 1.962.805 2.126 1.771v.161c0 .966-.818 1.772-1.962 1.933-.98 0-1.962-.806-1.962-1.933zm1.798-2.255c-.653 0-1.144.162-1.634.645s-.654 1.127-.654 1.771c.163 1.288 1.144 2.255 2.452 2.094 1.308 0 2.289-1.128 2.289-2.416s-1.145-2.255-2.453-2.094z"/></g><defs><clipPath id="clip0_4853_338856"><path fill="#fff" transform="translate(.236)" d="M0 0h95.87v30H0z"/></clipPath></defs></svg>