<svg width="72" height="40" fill="none" xmlns="http://www.w3.org/2000/svg"><g clip-path="url(#clip0_4853_338851)" fill-rule="evenodd" clip-rule="evenodd"><path d="M25.322 30.199l3.577-20.28h5.797l-3.577 20.28h-5.797zM51.965 10.39a16.524 16.524 0 00-5.18-.825c-5.675 0-9.622 2.712-9.745 6.72 0 2.83 2.96 4.481 5.057 5.425 2.343 1.06 3.084 1.65 3.084 2.594 0 1.297-1.85 1.886-3.454 1.886-2.344 0-3.577-.236-5.427-1.061l-.864-.236-.74 4.48c1.357.59 3.824 1.062 6.414 1.062 6.044 0 9.991-2.712 10.115-6.839 0-2.358-1.604-4.127-4.934-5.541-1.974-.944-3.207-1.533-3.207-2.477 0-.825 1.11-1.768 3.33-1.768 1.85 0 3.207.354 4.317.707l.494.236.74-4.363zM66.89 9.92h-4.564c-1.357 0-2.344.354-2.96 1.65L50.73 30.2h6.044s.987-2.476 1.234-3.066h7.4c.247.708.74 3.066.74 3.066h5.304L66.89 9.919zm-7.154 13.088c.493-1.18 2.22-5.66 2.22-5.66s.493-1.179.863-2.004l.37 1.768s1.11 4.834 1.357 5.896h-4.81zM20.388 9.919l-5.55 13.795-.617-2.83c-1.11-3.183-4.317-6.72-8.018-8.489l5.18 17.804h6.045l9.127-20.28h-6.167z" fill="#fff"/><path d="M9.567 10.217H.273l-.124.45c7.311 1.57 12.144 5.385 14.126 9.985L12.17 11.9c-.248-1.234-1.363-1.683-2.602-1.683z" fill="#D8D8D8"/></g><defs><clipPath id="clip0_4853_338851"><path fill="#fff" transform="translate(.15)" d="M0 0h71.304v40H0z"/></clipPath></defs></svg>