<svg width="157" height="40" fill="none" xmlns="http://www.w3.org/2000/svg"><g clip-path="url(#clip0_4853_338853)" fill-rule="evenodd" clip-rule="evenodd" fill="#fff"><path d="M28.776 18.387c0-.514-.26-.771-.777-.771h-2.588c-.776 0-1.035.514-1.035 1.028v4.629c0 .771.517 1.028 1.035 1.028h2.588c.259 0 .259 0 .518-.257.259 0 .259-.257.259-.514v-5.143zm-7.765-.514c0-1.286.26-2.057.777-2.829.259-.257.776-.257 1.035-.514.518-.257.776-.257 1.294-.257h4.917c2.07 0 3.106 1.029 3.106 3.343v7.2c0 .77-.259 1.542-1.035 2.056-.518.515-1.294 1.029-2.07 1.029h-4.66v5.143h-3.364V17.873zm17.34 5.914s0 .257.259.257c0 .257.259.257.517.257h2.588c.518 0 .777-.257 1.036-.514v-1.029c0-.514-.518-.771-1.035-.771H38.35v1.8zm4.4-5.4c0-.514-.518-.771-1.035-.771h-6.73v-3.343h7.506c2.33 0 3.364 1.029 3.623 3.086v7.2c-.259 1.028-.518 1.8-1.035 2.313-.518.772-1.294 1.029-2.07 1.029H38.35c-2.33 0-3.364-1.029-3.364-3.086v-2.828c0-2.057 1.035-3.086 3.105-3.343h4.659v-.257zm12.681 11.057c.259 0 .518 0 .776-.257.26-.258.26-.258.26-.515v-.771h-4.4c-.518 0-1.036-.257-1.294-.257-.26-.257-.777-.514-1.036-.772-.258-.257-.517-.771-.776-1.028-.259-.514-.259-1.029-.259-1.543V14.273h3.365v9c0 .771.258 1.028 1.035 1.028h2.329c.259 0 .518 0 .776-.257 0 0 .26-.257.26-.514v-9.257h3.364v14.914c0 1.028-.26 2.057-.777 2.828-.776.514-1.553 1.029-2.329 1.029h-8.023v-3.6h6.729zM62.42 24.3h5.952c.518 0 1.035-.257 1.035-.514v-.257c0-.257 0-.257-.258-.515 0-.257-.26-.257-.518-.257h-2.847c-1.035 0-1.553-.257-2.33-1.028-.517-.514-1.034-1.029-1.034-1.8v-2.571c0-2.057 1.294-3.086 3.364-3.086h6.988v3.343h-5.953c-.776 0-1.035.257-1.035.771v.257c0 .515.259.515 1.035.515h3.106c.776.257 1.294.514 2.07 1.028.518.514.777 1.286.777 2.057v2.571c0 .772-.26 1.286-1.035 2.057-.26.515-.518.515-.777.772-.517.257-.776.257-1.553.257H62.42v-3.6zm16.045-.514l.26.257c.258.257.517.257.776.257h2.587c.518 0 .777-.257.777-.514v-1.029c0-.514-.259-.771-.776-.771h-3.365c0 .257-.259.514-.259.771v1.029zm4.4-5.4c0-.514-.259-.771-.776-.771H75.1v-3.343h7.764c2.33 0 3.364 1.029 3.364 3.086v7.2c0 1.028-.258 1.8-.776 2.313-.518.772-1.294 1.029-2.33 1.029h-4.658c-2.07 0-3.364-1.029-3.364-3.086v-2.828c0-2.057 1.294-3.086 3.364-3.343h4.4v-.257zm6.211-6.171c0-.771.259-1.543 1.035-2.314.518-.514 1.553-.772 2.588-.772h2.07v3.343h-1.293c-.777 0-1.035.257-1.035 1.029v.771h2.329v3.343h-2.33V27.9h-3.364V12.216zm15.269 6.171v-.257s0-.257-.258-.257c0-.257-.259-.257-.518-.257h-2.329c-.259 0-.518 0-.777.257-.258.257-.258.514-.258.771v1.286l4.14-1.543zm-4.14 4.886v.257c0 .257 0 .514.258.514 0 .257.259.257.518.257h6.729v3.6h-7.247c-.776 0-1.294-.257-1.552-.257-.518-.257-.777-.257-1.036-.772-.517-.257-.776-.514-.776-1.028-.259-.257-.259-.771-.259-1.543V17.36c0-2.057 1.035-3.086 3.365-3.086h4.399c2.071 0 3.106 1.029 3.365 3.343v2.571l-7.764 3.086zm14.751 4.628c-.517 0-1.035 0-1.294-.257-.517 0-1.035-.257-1.294-.514-.517-.515-.776-.772-1.035-1.286-.259-.514-.259-1.029-.259-1.8V16.33c.259-.514.518-.771.777-1.285.517-.258.776-.515 1.294-.772.517 0 1.035-.257 1.553-.257h5.176v1.028h-5.176c-.777 0-1.553 0-2.071.515-.517.257-.776 1.028-.776 2.057v6.428c0 .257 0 .771.259 1.286 0 .257.258.771.517 1.028.518.257.777.514 1.294.514.259 0 .777.258 1.035.258h4.918v.77h-4.918zm18.116-8.485h-6.728c-.777 0-1.553.257-1.812.771-.518.514-.776 1.286-.776 2.057v3.086c.258.514.258.771.776 1.028.518.514 1.035.772 1.812.772h4.14c1.812 0 2.588-1.029 2.588-2.829v-4.885zm.777 4.628v1.543c-.259.257-.259.771-.777 1.285-.776.515-1.552 1.029-2.588 1.029h-4.14c-1.036 0-1.812-.257-2.33-1.029-.776-.514-1.035-1.542-1.035-2.57v-2.058c0-2.314 1.035-3.6 3.365-3.6h6.728v-.771c0-.771-.258-1.543-.517-2.057-.259-.257-.777-.514-1.035-.772h-8.541v-1.028h6.988c.517 0 1.035.257 1.553.257.258 0 .517.257.776.257.259.257.518.257.776.772.518.771.777 1.542.777 2.57v6.172zm7.764-9c-2.071 0-2.847 1.029-2.847 2.829V27.9h-.776V17.873c0-2.571 1.035-3.857 3.623-3.857h1.035v1.028h-1.035zm13.458 0h-7.506c-.517 0-.776.258-1.035.772-.518.257-.776.771-.776 1.028 0 .258-.259.772-.259 1.286v6.171c0 1.029.517 1.8 1.035 2.057.259.257.776.514 1.035.514.259 0 .777.258 1.294.258h2.847c1.035 0 1.812-.258 2.329-.772.777-.514 1.036-1.285 1.036-2.314v-9zm1.035 9c-.259 2.571-1.553 3.857-4.4 3.857h-2.847c-.776 0-1.294 0-1.811-.257-.518 0-1.036-.514-1.294-.772-.518-.514-.777-1.028-.777-1.542-.259-.257-.259-.772-.259-1.543V18.13c0-2.828 1.553-4.114 4.141-4.114h6.212V9.645h1.035v14.399zM2.027 13.876c.262-.256.524-.256.786-.256.525-2.307 2.623-4.1 4.983-4.1 2.622 0 4.72 1.793 4.982 4.1.786 0 1.573.256 2.097.769v-1.282c-.524-3.331-3.408-6.15-7.08-6.15a7.097 7.097 0 00-7.08 6.663v.769c.525-.257.787-.513 1.312-.513zm9.964.513h-8.39c-.525 0-.788 0-1.312.256s-.787.256-1.049.512c-.524.77-.787 1.538-.787 2.82v6.406c0 1.025.263 2.05.787 2.563.262.256.525.512 1.049.769.524 0 .787.256 1.311.256h8.391c2.098 0 3.147-1.281 3.147-3.588V17.72c0-2.306-1.05-3.331-3.147-3.331z"/></g><defs><clipPath id="clip0_4853_338853"><path fill="#fff" transform="translate(.453)" d="M0 0h155.652v40H0z"/></clipPath></defs></svg>