<svg width="85" height="38" fill="none" xmlns="http://www.w3.org/2000/svg"><path fill-rule="evenodd" clip-rule="evenodd" d="M39.872 17.377a2.536 2.536 0 011.55-.524c.833 0 1.491.376 1.931.938.433.552.65 1.276.65 1.994v2.974a.662.662 0 01-.196.461.657.657 0 01-.462.2.666.666 0 01-.445-.168.653.653 0 01-.213-.493v-2.974c0-.423-.124-.839-.344-1.139a1.096 1.096 0 00-.92-.472c-.579 0-.962.242-1.208.604-.257.38-.38.922-.344 1.519l.001.012v2.45a.649.649 0 01-.658.66.666.666 0 01-.445-.167.653.653 0 01-.214-.493v-9.83a.649.649 0 011.12-.461.662.662 0 01.197.46v4.449zm-3.477-.246l.05.045a.662.662 0 01.032.905.65.65 0 01-.495.217h-.814V22.8a.649.649 0 01-1.12.461.662.662 0 01-.197-.46v-4.544h-.773a.666.666 0 01-.444-.168.653.653 0 01-.214-.493.649.649 0 01.658-.66h.773V15.53a.649.649 0 01.658-.66c.151-.001.315.05.446.167.138.124.213.3.213.493v1.404h1.227v.196zm43.79.806c.485-.623 1.205-1.041 2.053-1.043.844-.023 1.515.324 1.966.874.445.54.662 1.257.662 1.976v3.015a.662.662 0 01-.196.461.657.657 0 01-.463.2.666.666 0 01-.444-.168.653.653 0 01-.214-.493v-3.015c0-.422-.123-.826-.34-1.114a1.106 1.106 0 00-.924-.456c-.512 0-.873.27-1.126.704-.26.448-.383 1.042-.383 1.568v2.313a.662.662 0 01-.197.461.657.657 0 01-.462.2.665.665 0 01-.445-.168.653.653 0 01-.213-.493v-3.015c0-.422-.123-.826-.341-1.114a1.106 1.106 0 00-.923-.456c-.593 0-.96.222-1.193.564-.249.364-.377.916-.358 1.614v2.407a.649.649 0 01-.658.66.666.666 0 01-.445-.167.654.654 0 01-.214-.493v-5.122a.649.649 0 01.659-.66c.15 0 .314.05.444.167.09.08.153.182.186.296a2.54 2.54 0 011.579-.546c.847 0 1.548.416 1.99 1.043zm-32.654 2.922h4.117a.657.657 0 00.463-.2.662.662 0 00.196-.46c0-1.69-1.23-3.35-3.037-3.305-1.832.003-3.066 1.648-3.066 3.346 0 1.699 1.236 3.345 3.072 3.345.996 0 2.085-.45 2.632-1.417a.563.563 0 00.112-.353v-.006a.653.653 0 00-.213-.493.666.666 0 00-.445-.168c-.205 0-.427.1-.552.313-.415.548-.905.803-1.575.803-.805 0-1.457-.604-1.704-1.405zm3.381-1.322c-.23-.79-.902-1.404-1.718-1.404-.805 0-1.457.604-1.704 1.404h3.422zm9.953 1.322h4.118a.657.657 0 00.462-.2.662.662 0 00.196-.46c0-1.694-1.273-3.35-3.036-3.305-1.833.003-3.066 1.648-3.066 3.346 0 1.699 1.236 3.345 3.072 3.345.995 0 2.084-.45 2.632-1.417.113-.148.112-.304.112-.353v-.006a.653.653 0 00-.214-.493.666.666 0 00-.444-.168c-.205 0-.428.1-.553.313-.415.548-.905.803-1.574.803-.806 0-1.457-.604-1.705-1.405zm3.382-1.322c-.23-.79-.903-1.404-1.718-1.404-.806 0-1.457.604-1.705 1.404h3.423zm-38.313 0h3.422c-.23-.79-.902-1.404-1.718-1.404-.805 0-1.457.604-1.704 1.404zm.04 1.322h4.118a.657.657 0 00.463-.2.662.662 0 00.196-.46c0-1.699-1.195-3.305-3.031-3.305s-3.072 1.646-3.072 3.346c0 1.699 1.236 3.345 3.072 3.345.995 0 2.085-.45 2.632-1.417a.563.563 0 00.112-.353v-.006a.653.653 0 00-.213-.493.666.666 0 00-.445-.168c-.205 0-.427.1-.552.313-.415.548-.905.803-1.575.803-.805 0-1.457-.604-1.704-1.405zm45.86 2.086c-.417.346-.939.558-1.534.558-.828 0-1.478-.363-1.91-.919-.425-.545-.63-1.259-.63-1.973v-3.015a.649.649 0 011.12-.461.662.662 0 01.197.461v3.057c0 .423.124.839.344 1.139.213.288.514.471.92.471.32 0 .554-.075.731-.19.18-.117.326-.29.444-.526.242-.485.335-1.18.335-1.968v-1.9a.649.649 0 01.659-.66c.161-.001.306.071.405.16a.613.613 0 01.212.458v5.122a.662.662 0 01-.197.461.657.657 0 01-.462.2.665.665 0 01-.444-.168.637.637 0 01-.19-.307zm-15.972-5.377a.646.646 0 00-.655-.591.649.649 0 00-.659.66v5.08c0 .194.076.37.214.494.131.117.294.168.445.168a.649.649 0 00.658-.661v-2.23c0-.602.14-1.123.404-1.507.253-.37.635-.635 1.187-.725a.595.595 0 00.42-.204.686.686 0 00.157-.456.61.61 0 00-.245-.474.767.767 0 00-.15-.093.54.54 0 00-.222-.052c-.579 0-1.12.243-1.554.59z" fill="#fff"/><path fill-rule="evenodd" clip-rule="evenodd" d="M.765 21.23l10.02 14.292V27.22L.766 21.23z" fill="#9E9E9E"/><path fill-rule="evenodd" clip-rule="evenodd" d="M.765 19.289l10.02 6.03V14.704L.766 19.29z" fill="#D8D8D8"/><path fill-rule="evenodd" clip-rule="evenodd" d="M.765 19.29l10.02-4.586V2.478L.766 19.29z" fill="#9E9E9E"/><path fill-rule="evenodd" clip-rule="evenodd" d="M20.848 21.23L10.786 35.523V27.22l10.062-5.99z" fill="#CECECE"/><path fill-rule="evenodd" clip-rule="evenodd" d="M20.848 19.289l-10.062 6.03V14.704l10.062 4.585z" fill="#EBEBEB"/><path fill-rule="evenodd" clip-rule="evenodd" d="M20.848 19.29l-10.062-4.586V2.478L20.848 19.29z" fill="#CECECE"/></svg>