<svg width="134" height="32" fill="none" xmlns="http://www.w3.org/2000/svg"><g clip-path="url(#clip0_4853_338999)" fill="#fff"><path d="M16.772 10.606h-2.144v4.225H18v1.77h-3.372v4.225h2.249c.577 0 4.742.065 4.736-4.916-.007-4.981-4.04-5.304-4.841-5.304z"/><path d="M16.412.72c-8.285 0-15 6.717-15 15 0 8.285 6.715 15 15 15 8.284 0 15-6.715 15-15 0-8.283-6.716-15-15-15zM17 23.823h-5.432v-7.221H9.654v-1.77h1.915V7.61h4.662c1.103 0 8.408-.229 8.408 8.242 0 8.612-7.638 7.971-7.638 7.971zM61.86 12.167c-.973-.515-2.08-.776-3.309-.776-1.228 0-2.336.261-3.323.776a5.95 5.95 0 00-2.314 2.14c-.557.91-.829 1.94-.829 3.08 0 1.142.28 2.17.83 3.08a5.899 5.899 0 002.313 2.141c.987.515 2.095.776 3.323.776 1.228 0 2.336-.261 3.308-.776a5.8 5.8 0 002.314-2.14c.565-.91.851-1.94.851-3.08 0-1.142-.286-2.17-.851-3.08a5.8 5.8 0 00-2.314-2.141zm-.581 6.943c-.279.493-.656.88-1.13 1.149-.475.276-1.01.41-1.598.41a3.124 3.124 0 01-1.598-.41 3.025 3.025 0 01-1.13-1.149c-.279-.507-.414-1.081-.414-1.73s.135-1.215.414-1.708a2.983 2.983 0 011.13-1.17 3.123 3.123 0 011.598-.41c.588 0 1.123.133 1.598.41.474.275.851.663 1.13 1.17.279.492.414 1.067.414 1.708 0 .642-.135 1.23-.414 1.73zM72.793 14.091c1.1 0 2.042.425 2.826 1.283l2.095-1.88a5.656 5.656 0 00-2.163-1.566c-.866-.365-1.838-.544-2.924-.544-1.243 0-2.358.261-3.346.776a5.711 5.711 0 00-2.313 2.125c-.558.91-.829 1.94-.829 3.095 0 1.156.279 2.186.83 3.095a5.808 5.808 0 002.297 2.14c.972.508 2.073.762 3.293.762.867 0 1.726-.127 2.593-.38a7.585 7.585 0 002.298-1.09v-4.773h-2.909v3.162a4.229 4.229 0 01-1.778.38c-.64 0-1.213-.133-1.71-.41a2.955 2.955 0 01-1.161-1.17c-.279-.508-.415-1.074-.415-1.708 0-1 .302-1.798.912-2.387.603-.604 1.41-.91 2.404-.91zM47.843 12.331c-.987-.47-2.118-.708-3.391-.708H38.95v11.522h5.5c1.274 0 2.405-.238 3.392-.708.987-.47 1.748-1.141 2.298-2.006.543-.866.814-1.88.814-3.043 0-1.164-.271-2.178-.814-3.043-.55-.873-1.318-1.544-2.298-2.014zm-1.13 7.376c-.596.56-1.395.843-2.397.843h-2.08v-6.317h2.08c.995 0 1.794.283 2.397.843.61.56.911 1.335.911 2.32 0 .984-.309 1.752-.911 2.311zM120.087 11.623h-3.293v11.522h3.293V11.623zM111.911 12.167c-.972-.515-2.08-.776-3.308-.776-1.228 0-2.336.261-3.323.776a5.959 5.959 0 00-2.314 2.14c-.557.91-.829 1.94-.829 3.08 0 1.142.279 2.17.829 3.08a5.904 5.904 0 002.314 2.141c.987.515 2.095.776 3.323.776 1.228 0 2.336-.261 3.308-.776a5.804 5.804 0 002.314-2.14c.565-.91.851-1.94.851-3.08 0-1.142-.286-2.17-.851-3.08a5.804 5.804 0 00-2.314-2.141zm-.588 6.943c-.278.493-.655.88-1.13 1.149-.475.276-1.01.41-1.598.41a3.125 3.125 0 01-1.597-.41 3.017 3.017 0 01-1.13-1.149c-.279-.507-.415-1.081-.415-1.73s.136-1.215.415-1.708a2.975 2.975 0 011.13-1.17 3.124 3.124 0 011.597-.41c.588 0 1.123.133 1.598.41.475.275.852.663 1.13 1.17.279.492.415 1.067.415 1.708 0 .642-.136 1.23-.415 1.73zM82.801 18.521h5.17v-2.438H82.8v-1.94h5.87v-2.52h-9.133v11.522h9.344v-2.52h-6.081V18.52zM130.275 11.623v6.138l-5.139-6.138h-2.705v11.522h3.225v-6.138l5.132 6.138h2.713V11.623h-3.226zM94.97 14.501c.498-.276 1.063-.41 1.696-.41 1.078 0 1.99.448 2.743 1.35l2.095-1.88a5.538 5.538 0 00-2.125-1.61c-.852-.373-1.816-.56-2.879-.56-1.22 0-2.313.261-3.293.776a5.708 5.708 0 00-2.275 2.126c-.558.91-.83 1.939-.83 3.095 0 1.156.28 2.185.83 3.095a5.847 5.847 0 002.275 2.14c.972.507 2.073.76 3.293.76 1.063 0 2.02-.186 2.879-.558a5.538 5.538 0 002.125-1.611l-2.095-1.88c-.754.903-1.665 1.35-2.743 1.35-.633 0-1.198-.134-1.695-.41a2.96 2.96 0 01-1.146-1.149c-.264-.507-.4-1.081-.4-1.73s.136-1.216.4-1.708c.271-.522.656-.91 1.146-1.186z"/></g><defs><clipPath id="clip0_4853_338999"><path fill="#fff" transform="translate(.565 .5)" d="M0 0h133v31H0z"/></clipPath></defs></svg>