<svg width="145" height="38" fill="none" xmlns="http://www.w3.org/2000/svg"><g clip-path="url(#clip0_4853_338998)"><path d="M9.709 28.902c5.362 0 9.709-4.371 9.709-9.762 0-5.392-4.347-9.762-9.709-9.762C4.347 9.378 0 13.748 0 19.14c0 5.391 4.347 9.762 9.709 9.762z" fill="#fff"/><path d="M12.733 15.872c-.485-1.11-1.601-1.343-2.972-1.116l-.44-1.71-1.04.268.433 1.71c-.271.069-.555.127-.826.209l-.434-1.698-1.041.267.44 1.715c-.22.064-2.088.547-2.088.547l.29 1.116s.762-.215.757-.197c.422-.11.618.098.717.302l1.208 4.698c.018.14-.006.372-.3.447.017.006-.758.198-.758.198l.116 1.297s1.85-.477 2.093-.535l.445 1.732 1.035-.267-.445-1.744c.29-.064.561-.14.833-.21l.445 1.739 1.04-.268-.444-1.732c1.596-.39 2.723-1.402 2.492-2.948-.15-.93-1.162-1.698-2.007-1.785.51-.483.775-1.151.451-2.035zm-.503 4.081c.208 1.535-1.908 1.721-2.613 1.908l-.613-2.291c.71-.186 2.885-.965 3.226.383zm-1.272-3.116c.22 1.36-1.59 1.523-2.18 1.675l-.555-2.082c.584-.151 2.29-.86 2.735.407z" fill="#000"/><path d="M28.237 28.617c-.937 0-1.88-.03-2.805-.093a20.483 20.483 0 01-2.909-.407v-16.71a24.19 24.19 0 012.603-.331 32.899 32.899 0 012.625-.117c1.093 0 2.093.082 3.007.245.914.15 1.7.424 2.365.802.66.384 1.18.878 1.55 1.506.37.628.56 1.395.56 2.296 0 1.378-.659 2.46-1.983 3.256 1.093.407 1.827.983 2.22 1.686.394.715.596 1.518.596 2.413 0 1.814-.659 3.169-1.972 4.076-1.324.93-3.261 1.378-5.857 1.378zM26.282 17.93h1.88c1.196 0 2.03-.15 2.555-.459.503-.302.764-.802.764-1.477 0-.703-.266-1.186-.787-1.465-.532-.279-1.307-.424-2.324-.424-.33 0-.683 0-1.064.011a12.4 12.4 0 00-1.018.064c-.006 0-.006 3.75-.006 3.75zm0 2.966v4.453c.278.04.584.064.914.076.33.017.7.029 1.093.029 1.156 0 2.081-.163 2.793-.494.71-.332 1.064-.942 1.064-1.838 0-.79-.295-1.366-.885-1.697-.596-.343-1.446-.512-2.556-.512h-2.423v-.017zM41.571 11.535c0 .674-.214 1.215-.659 1.61a2.224 2.224 0 01-1.55.588 2.244 2.244 0 01-1.55-.588c-.433-.395-.659-.918-.659-1.61 0-.675.214-1.215.66-1.61a2.27 2.27 0 011.55-.588 2.244 2.244 0 011.55.587c.439.402.658.937.658 1.61zm-.358 16.867h-3.684V15.314h3.684v13.088zM43.196 12.058l3.684-.599v3.855h4.43v3.087h-4.43v4.593c0 .78.139 1.407.404 1.861.267.46.827.703 1.649.703.41-.005.815-.04 1.22-.116.393-.07.78-.174 1.156-.308l.52 2.884c-.48.197-.982.354-1.486.47-.543.129-1.208.204-2.006.204-1.006 0-1.839-.14-2.504-.407-.66-.267-1.197-.65-1.59-1.15-.393-.483-.67-1.082-.827-1.774a11.098 11.098 0 01-.243-2.308V12.058h.023zM51.835 21.86a7.778 7.778 0 01.457-2.668 6.405 6.405 0 011.319-2.186c.572-.628 1.278-1.11 2.105-1.477.826-.372 1.763-.546 2.816-.546.694 0 1.33.064 1.902.191a9.24 9.24 0 011.677.535l-.763 2.96a8.927 8.927 0 00-1.145-.343 5.869 5.869 0 00-1.388-.151c-1.093 0-1.902.343-2.434 1.023-.532.674-.798 1.57-.798 2.68 0 1.175.254 2.093.745 2.733.51.651 1.388.97 2.626.97.48 0 .96-.04 1.434-.127.48-.076.96-.21 1.41-.396l.521 3.035c-.52.21-1.058.367-1.613.471-.706.14-1.417.21-2.134.204-1.197 0-2.209-.18-3.07-.535-.862-.355-1.562-.843-2.123-1.454-.56-.616-.954-1.337-1.208-2.174a11.503 11.503 0 01-.336-2.744zM75.012 21.837c0 1.035-.15 1.966-.445 2.82a6.071 6.071 0 01-1.278 2.186 5.974 5.974 0 01-2.018 1.407c-.792.332-1.66.5-2.626.5-.954 0-1.827-.162-2.613-.5a5.76 5.76 0 01-2.018-1.407 6.211 6.211 0 01-1.307-2.186c-.318-.854-.469-1.802-.469-2.82 0-1.034.162-1.965.48-2.808.318-.843.764-1.57 1.33-2.157a6.105 6.105 0 012.03-1.395 6.525 6.525 0 012.567-.5c.937 0 1.805.163 2.591.5.786.331 1.457.79 2.018 1.395a6.2 6.2 0 011.307 2.157c.29.843.451 1.774.451 2.808zm-3.759 0c0-1.15-.23-2.04-.682-2.692-.457-.65-1.104-.982-1.943-.982-.838 0-1.498.331-1.954.982-.457.652-.7 1.559-.7 2.692 0 1.152.231 2.053.7 2.721.456.675 1.116 1.012 1.954 1.012.839 0 1.486-.331 1.943-1.012.457-.68.682-1.587.682-2.72zM80.529 11.535c0 .674-.214 1.215-.66 1.61a2.223 2.223 0 01-1.55.588 2.244 2.244 0 01-1.549-.588c-.434-.395-.66-.918-.66-1.61 0-.675.215-1.215.66-1.61a2.271 2.271 0 011.55-.588 2.244 2.244 0 011.55.587c.439.402.659.937.659 1.61zm-4.025 16.867V15.314h3.683v13.088h-3.683zM82.275 15.762c.625-.18 1.434-.355 2.423-.506a19.865 19.865 0 013.111-.244c1.105 0 2.018.14 2.758.436.735.29 1.319.703 1.74 1.227.435.534.735 1.162.915 1.89.179.726.266 1.546.266 2.435v7.39h-3.684v-6.948c0-1.203-.15-2.04-.468-2.54-.318-.5-.902-.739-1.752-.739a8.49 8.49 0 00-.839.04c-.295.03-.56.053-.786.088V28.39h-3.684V15.762z" fill="#919195"/><path d="M103.555 28.744c-2.793 0-4.91-.779-6.372-2.337-1.458-1.558-2.186-3.767-2.186-6.64 0-1.43.231-2.691.67-3.813.446-1.123 1.053-2.065 1.828-2.832a7.75 7.75 0 012.77-1.75c1.064-.395 2.232-.599 3.492-.599.723 0 1.388.052 1.984.163.532.087 1.052.21 1.561.372.382.116.758.262 1.116.436.289.151.503.268.648.343l-1.116 3.128a9.206 9.206 0 00-1.839-.715c-.7-.204-1.498-.297-2.388-.297-.59 0-1.18.105-1.741.297a4.131 4.131 0 00-1.509.96c-.434.435-.787 1.01-1.052 1.697-.267.698-.394 1.546-.394 2.54-.005.75.081 1.495.255 2.222.179.686.457 1.273.838 1.773.405.512.925.919 1.521 1.186.624.29 1.388.436 2.273.436.503 0 1.006-.029 1.509-.099a8.383 8.383 0 001.197-.244 6.2 6.2 0 00.913-.302c.266-.117.504-.233.712-.32l1.064 3.116c-.544.332-1.307.628-2.296.89-1.006.262-2.163.39-3.458.39zM115.086 14.97c1.092 0 1.995.129 2.717.373.723.244 1.307.599 1.741 1.07.445.477.757 1.058.925 1.686.179.663.266 1.407.266 2.21v7.709c-.532.116-1.255.255-2.197.407-.937.15-2.082.244-3.412.244-.838 0-1.602-.082-2.284-.233a5.16 5.16 0 01-1.764-.726 3.42 3.42 0 01-1.145-1.326c-.266-.547-.393-1.215-.393-2.018 0-.767.15-1.407.457-1.941a3.349 3.349 0 011.22-1.262c.503-.32 1.093-.547 1.752-.686a9.779 9.779 0 012.053-.215c.48 0 .902.029 1.266.064.37.04.671.087.902.162v-.343c0-.628-.19-1.133-.572-1.517-.382-.384-1.041-.576-1.983-.576-.619 0-1.238.047-1.851.14a7.513 7.513 0 00-1.59.384l-.469-2.989c.214-.064.48-.14.798-.215.319-.081.671-.14 1.053-.203.382-.064.775-.105 1.197-.152.451-.023.879-.046 1.313-.046zm.289 10.832c.37 0 .711-.011 1.041-.029.266-.005.526-.029.786-.075V22.89c-.15-.041-.37-.064-.671-.1a6.338 6.338 0 00-.815-.052c-.33.006-.654.024-.977.064-.301.041-.573.117-.798.245-.22.104-.411.267-.544.47-.139.221-.208.477-.202.739 0 .576.19.983.584 1.203.393.245.925.343 1.596.343zM126.46 25.744c.671 0 1.156-.064 1.434-.203.283-.128.422-.395.422-.768 0-.29-.179-.564-.543-.779-.37-.232-.914-.47-1.66-.75a15.737 15.737 0 01-1.573-.674 4.628 4.628 0 01-1.197-.832 3.38 3.38 0 01-.763-1.162c-.179-.448-.266-.983-.266-1.623 0-1.226.457-2.197 1.359-2.912.902-.716 2.145-1.07 3.73-1.07.763 0 1.52.075 2.272.215.723.14 1.307.29 1.729.46l-.648 2.883c-.456-.163-.919-.29-1.399-.395a7.514 7.514 0 00-1.688-.18c-1.157 0-1.729.32-1.729.97a.859.859 0 00.08.396c.064.133.168.25.29.331.196.134.399.244.613.343a8.4 8.4 0 00.977.407c.815.308 1.469.6 2.006.89.532.29.937.616 1.244.942.289.325.514.703.647 1.122.128.407.191.89.191 1.442 0 1.285-.48 2.273-1.446 2.924-.965.663-2.324.994-4.088.994-1.156 0-2.122-.098-2.88-.29-.763-.204-1.295-.372-1.601-.5l.624-3.012c.625.244 1.272.442 1.932.587.63.163 1.278.244 1.931.244zM133.353 28.401V9.697l3.683-.598v6.267c.313-.099.631-.18.954-.244a5.683 5.683 0 011.128-.116c1.053 0 1.931.14 2.625.436.694.29 1.255.698 1.677 1.227.422.534.712 1.162.885 1.89.179.726.255 1.546.255 2.435v7.396h-3.684v-6.948c0-1.204-.15-2.04-.457-2.54-.306-.5-.873-.74-1.688-.74a4.466 4.466 0 00-.926.088c-.294.064-.543.116-.774.192v9.942h-3.684l.006.017z" fill="#fff"/></g><defs><clipPath id="clip0_4853_338998"><path fill="#fff" d="M0 0h144.565v38H0z"/></clipPath></defs></svg>