<svg width="101" height="32" fill="none" xmlns="http://www.w3.org/2000/svg"><path d="M17.806 7.931c-.069-.066-.207-.066-.277-.066-.762-.2-2.563-.266-3.186.199-.07.067-.208.2-.208.332a68.133 68.133 0 00-4.78 6.846L4.921 8.396V8.33c-.069-.133-.138-.2-.207-.332-.485-.4-2.079-.4-2.91-.266a1.35 1.35 0 00-.554.133.864.864 0 00-.554.797v14.423c0 .266.138.798 1.039.93.277.067.623.067.9.067.624 0 2.01 0 2.01-.997v-8.242c.276.466.83 1.33 1.454 2.393.831 1.529 1.386 2.46 1.732 2.925l.138.332c.139.2.347.399.555.598.485.266 1.039.332 1.593.266.138-.066.277-.066.346-.2.277-.132.485-.332.624-.598l.415-.664c.208-.333.624-1.064 1.317-2.326.692-1.263 1.247-2.127 1.593-2.726.554-.864 0 1.53 0 1.662v6.713c0 .997 1.316.997 2.009.997.623 0 2.009 0 2.009-.997V8.728a1.824 1.824 0 00-.624-.797zM22.656 13.647c-1.316 0-1.455.2-1.455.465v9.172c0 .266.208.466 1.455.466s1.455-.2 1.455-.466v-9.172c0-.2-.208-.465-1.455-.465z" fill="#fff"/><path d="M22.656 24.348c-.623 0-2.009 0-2.009-.997v-9.239c0-.997 1.316-.997 2.009-.997.623 0 2.009 0 2.009.997v9.172c-.07 1.064-1.386 1.064-2.009 1.064zm-.9-1.13a8.167 8.167 0 001.8 0v-8.973a8.155 8.155 0 00-1.8 0v8.973zM37.203 8.462h-8.382c-.9 0-1.316.133-1.316.465V23.35c0 .266.208.465 1.455.465 1.246 0 1.454-.2 1.454-.465v-5.916h5.958c.485 0 .762-.531.762-1.262 0-.798-.277-1.263-.762-1.263h-5.958V11.12h6.79c.484 0 .761-.531.761-1.262 0-.864-.277-1.396-.762-1.396z" fill="#fff"/><path d="M29.029 24.348c-.624 0-2.009 0-2.009-.997V8.928c0-.93 1.108-.93 1.87-.997h8.383c.623 0 1.316.465 1.316 1.795 0 1.329-.693 1.794-1.316 1.794h-6.235v2.725h5.403c.624 0 1.316.466 1.316 1.795 0 1.33-.692 1.794-1.316 1.794h-5.403v5.45c-.07 1.064-1.386 1.064-2.01 1.064zm-.9-1.13a8.168 8.168 0 001.8 0v-6.314h6.512c.07 0 .208-.266.208-.731 0-.465-.139-.731-.208-.731H29.93V10.59h7.344c.069 0 .207-.2.207-.731 0-.532-.207-.731-.207-.731H28.89c-.277 0-.554 0-.762.066v14.024zM59.025 8.463c-1.247 0-1.455.266-1.455.465v9.505l-6.858-9.704v-.066c-.346-.333-2.078-.266-2.494-.067-.138.067-.277.2-.277.332v14.357c0 .133 0 .465 1.455.465s1.455-.332 1.455-.465V13.78l6.858 9.704c.138.2.762.266 1.316.266.346 0 .762 0 1.108-.133.277-.066.347-.266.347-.399V8.928c0-.199-.139-.465-1.455-.465z" fill="#fff"/><path d="M59.026 24.348c-1.248 0-1.594-.266-1.802-.532l-5.819-8.308v7.776c0 .997-1.316.997-2.009.997-.623 0-2.009 0-2.009-.997V8.928c0-.399.277-.665.624-.797.415-.133 2.494-.333 3.117.199l.07.133 5.819 8.308V8.928c0-.997 1.385-.997 2.008-.997.624 0 2.01 0 2.01.997v14.356c0 .4-.347.798-.763.864-.346.133-.83.2-1.246.2zm-.901-1.197c.277.067.623.133.9.133.347 0 .624 0 .901-.066V9.061a8.159 8.159 0 00-1.801 0v11.1l-7.828-11.1a4.436 4.436 0 00-1.87 0v14.157a8.167 8.167 0 001.8 0v-11.1l7.898 11.033zM65.744 8.462c-1.247 0-1.455.2-1.455.465V23.35c0 .266.208.465 1.455.465s1.455-.2 1.455-.465V8.927c0-.266-.139-.465-1.455-.465z" fill="#fff"/><path d="M65.745 24.348c-.624 0-2.01 0-2.01-.997V8.928c0-.997 1.317-.997 2.01-.997.623 0 2.009 0 2.009.997v14.423c0 .997-1.317.997-2.01.997zm-.9-1.13a8.167 8.167 0 001.8 0V9.061c-.277-.066-.623-.066-.9-.066-.278 0-.624 0-.9.066v14.157zM42.676 8.462c-1.247 0-1.454.2-1.454.465V23.35c0 .266.207.465 1.454.465 1.247 0 1.455-.2 1.455-.465V8.927c0-.266-.208-.465-1.455-.465z" fill="#fff"/><path d="M42.676 24.348c-.623 0-2.009 0-2.009-.997V8.928c0-.997 1.316-.997 2.01-.997.623 0 2.008 0 2.008.997v14.423c-.07.997-1.385.997-2.009.997zm-.9-1.13a8.167 8.167 0 001.8 0V9.061a8.159 8.159 0 00-1.8 0v14.157zM82.647 8.462H70.94c-.277 0-.485.2-.485 1.396s.208 1.395.485 1.395h4.434V23.35c0 .266.208.465 1.454.465 1.247 0 1.455-.2 1.455-.465V11.253h4.434c.277 0 .485-.199.485-1.395-.07-1.197-.347-1.396-.555-1.396z" fill="#fff"/><path d="M76.76 24.348c-.624 0-2.01 0-2.01-.997V11.786h-3.879c-1.039 0-1.039-1.263-1.039-1.927 0-.665 0-1.928 1.04-1.928h11.707c1.039 0 1.039 1.263 1.039 1.928 0 .664 0 1.927-1.04 1.927H78.7v11.565c.07.997-1.247.997-1.94.997zm-.832-1.13a8.167 8.167 0 001.801 0V10.723h4.78c.07-.599.07-1.13 0-1.728H71.08c-.07.598-.07 1.13 0 1.728h4.78v12.495h.07zM99.342 8.595c-.554-.199-2.563-.199-2.91.2l-3.67 5.45-3.672-5.45c-.347-.465-2.356-.399-2.91-.266-.277.067-.346.266-.346.399v.066l5.472 8.175v5.982c0 .133 0 .532 1.455.532s1.455-.399 1.455-.532V17.17l5.473-8.175v-.066c0-.067-.07-.2-.347-.333z" fill="#fff"/><path d="M92.762 24.347c-.485 0-2.01 0-2.01-1.064v-5.849L85.28 9.26V9.06c0-.399.346-.798.762-.864.554-.2 2.91-.332 3.533.399l3.187 4.719 3.186-4.786c.624-.73 3.048-.598 3.533-.398.416.132.693.465.693.864v.199l-5.473 8.175v5.849c.07 1.13-1.454 1.13-1.94 1.13zm-.901-1.197a4.118 4.118 0 001.801 0v-6.048l5.404-8.042c-.555-.133-1.87-.066-2.217.133l-4.087 6.115-4.088-6.049c-.277-.199-1.593-.199-2.216-.133l5.334 8.043.069 5.982zM22.032 8.064h1.04c.9 0 1.592.664 1.592 1.528v1.064c0 .864-.692 1.528-1.593 1.528h-1.039c-.9 0-1.593-.664-1.593-1.528V9.592c0-.864.692-1.528 1.593-1.528z" fill="#fff"/></svg>