<svg width="95" height="38" fill="none" xmlns="http://www.w3.org/2000/svg"><path fill-rule="evenodd" clip-rule="evenodd" d="M.087 19c0 6.843 5.548 12.391 12.391 12.391 6.844 0 12.392-5.547 12.392-12.391S19.322 6.609 12.478 6.609C5.635 6.609.087 12.156.087 18.999zM12.06 18.9l-.84 4.004h7.194l-.582 2.804H7.373l.88-4.197-1.71 1.172.415-2.297 1.788-1.23 1.754-8.371h3.265l-1.207 5.748 4.25-2.926-.497 2.38-4.25 2.913zM32.304 26.435h1.791v-14.87h-1.79v14.87zm4.812 0h1.79V15.96h-1.79v10.475zm-.145-13.253c0-.29.088-.536.266-.736.177-.2.44-.3.789-.3.348 0 .613.1.793.3.181.2.271.445.271.736 0 .29-.09.532-.27.726-.181.194-.446.29-.794.29-.349 0-.612-.097-.79-.29a1.033 1.033 0 01-.265-.726zm7.231 2.778v-2.536h-1.791v2.536h-1.907v1.385h1.907v6.495c0 .891.203 1.578.61 2.062.407.484 1.01.726 1.81.726.445 0 .904-.064 1.375-.193v-1.452a4.333 4.333 0 01-.852.116c-.42 0-.716-.105-.89-.315-.175-.21-.262-.524-.262-.944v-6.495h1.956V15.96h-1.956zm8.393 10.668c-1.42 0-2.575-.466-3.466-1.398-.89-.933-1.335-2.18-1.335-3.742v-.33c0-1.038.198-1.966.595-2.782.397-.817.952-1.456 1.665-1.917a4.186 4.186 0 012.319-.692c1.361 0 2.42.448 3.175 1.345.755.897 1.132 2.182 1.132 3.853v.746h-7.096c.026 1.032.328 1.866.906 2.502.577.636 1.311.954 2.202.954.632 0 1.168-.13 1.607-.388.439-.258.823-.6 1.152-1.026l1.094.852c-.878 1.349-2.194 2.023-3.95 2.023zm-2.042-8.6a2.389 2.389 0 011.82-.79c.748 0 1.342.25 1.78.75.44.5.685 1.206.736 2.116v.135h-5.247c.117-.949.42-1.686.91-2.212zm12.4 7.139a2.58 2.58 0 001.675-.581c.478-.387.742-.871.794-1.452h1.694c-.032.6-.239 1.171-.62 1.713-.38.542-.888.975-1.524 1.297a4.4 4.4 0 01-2.018.484c-1.427 0-2.561-.476-3.403-1.427-.843-.953-1.264-2.255-1.264-3.907v-.3c0-1.02.188-1.926.562-2.72.374-.794.912-1.41 1.612-1.85.7-.438 1.528-.657 2.483-.657 1.174 0 2.15.351 2.928 1.055.778.703 1.193 1.617 1.244 2.74h-1.694c-.052-.678-.308-1.235-.77-1.67-.461-.436-1.03-.654-1.708-.654-.91 0-1.615.328-2.115.983-.5.655-.75 1.602-.75 2.841v.339c0 1.207.248 2.136.745 2.788.497.652 1.207.978 2.13.978zm6.307-6.835c-.403.82-.605 1.742-.605 2.769v.126c0 1.626.44 2.933 1.322 3.92.88.988 2.031 1.481 3.451 1.481.942 0 1.776-.226 2.502-.677.726-.452 1.285-1.083 1.675-1.893.39-.81.586-1.725.586-2.744v-.126c0-1.64-.44-2.953-1.322-3.94-.88-.988-2.034-1.481-3.46-1.481-.923 0-1.745.222-2.464.668-.72.445-1.281 1.077-1.684 1.897zm1.196 2.982c0 1.161.27 2.094.808 2.797.54.704 1.26 1.056 2.164 1.056.91 0 1.633-.357 2.169-1.07.535-.713.803-1.712.803-2.996 0-1.15-.273-2.08-.818-2.793-.545-.713-1.27-1.07-2.173-1.07-.885 0-1.598.352-2.14 1.055-.542.704-.813 1.71-.813 3.02zm10.136 5.12h1.79V15.96h-1.79v10.475zm-.145-13.252c0-.29.088-.536.266-.736.177-.2.44-.3.789-.3.348 0 .613.1.794.3.18.2.27.445.27.736 0 .29-.09.532-.27.726-.181.194-.446.29-.794.29-.349 0-.612-.097-.79-.29a1.034 1.034 0 01-.266-.726zM87 17.277l-.058-1.317h-1.694v10.475h1.791V18.97c.245-.503.587-.91 1.026-1.22.44-.31.949-.465 1.53-.465.716 0 1.244.181 1.583.543.338.361.511.92.517 1.674v6.932h1.791v-6.922c-.019-2.498-1.135-3.746-3.35-3.746-1.29 0-2.335.503-3.136 1.51z" fill="#fff"/></svg>