<svg width="96" height="38" fill="none" xmlns="http://www.w3.org/2000/svg"><g clip-path="url(#clip0_4853_338861)"><path d="M31.22 26.71V11.496h5.223a6.502 6.502 0 013.953 1.03 3.558 3.558 0 011.358 3.09c0 .677-.177 1.324-.561 1.883a3.587 3.587 0 01-1.652 1.295 3.271 3.271 0 011.918 1.265c.472.648.708 1.413.678 2.207a4.018 4.018 0 01-1.357 3.296 6.124 6.124 0 01-3.953 1.148H31.22zm2.656-8.799h2.596c.709.03 1.387-.147 1.948-.559.501-.412.737-1.03.678-1.648a1.943 1.943 0 00-.649-1.648 3.205 3.205 0 00-2.006-.5h-2.567v4.355zm0 1.942v4.768h2.95a2.99 2.99 0 001.977-.618c.443-.412.708-1.03.679-1.648a2.125 2.125 0 00-.62-1.795 2.169 2.169 0 00-1.8-.618l-3.186-.089zM44.527 12.467c-.03-.353.118-.706.354-.971a1.442 1.442 0 011.062-.383 1.4 1.4 0 011.062.383c.236.265.384.618.354.97 0 .354-.118.707-.354.943a1.442 1.442 0 01-1.062.382 1.442 1.442 0 01-1.062-.382 1.218 1.218 0 01-.354-.942zm2.714 14.243h-2.566v-11.3h2.566v11.3z" fill="#fff"/><path fill-rule="evenodd" clip-rule="evenodd" d="M53.172 12.643v2.737h2.006v1.884h-2.006v6.356c-.03.324.059.677.265.942.266.206.59.324.915.294.295 0 .59-.03.885-.088v1.972a6.226 6.226 0 01-1.652.235c-1.977 0-2.95-1.089-2.95-3.296v-6.386h-1.889V15.41h1.888v-2.737h2.538v-.03zM61.786 24.886c.59.03 1.18-.148 1.653-.53a1.89 1.89 0 00.678-1.354h2.42a3.69 3.69 0 01-.68 1.972 4.119 4.119 0 01-1.651 1.442c-.708.353-1.505.56-2.302.53a4.853 4.853 0 01-3.776-1.56 6.13 6.13 0 01-1.387-4.238v-.264a5.838 5.838 0 011.387-4.12 4.853 4.853 0 013.776-1.56 4.581 4.581 0 013.305 1.177 4.226 4.226 0 011.357 3.09h-2.508c0-.618-.236-1.207-.649-1.648-.442-.442-1.032-.677-1.652-.618a2.243 2.243 0 00-1.888.883c-.502.794-.767 1.765-.679 2.707v.412a4.682 4.682 0 00.679 2.737c.383.647 1.15 1 1.917.942z" fill="#fff"/><path d="M67.893 20.972c0-1.03.207-2.06.65-3.002.412-.853 1.061-1.59 1.887-2.06a5.23 5.23 0 012.744-.706 4.899 4.899 0 013.718 1.471 6.004 6.004 0 011.563 3.914v.589a6.638 6.638 0 01-.649 3.001c-.413.854-1.032 1.56-1.858 2.03-.826.501-1.8.737-2.774.737-1.475.058-2.862-.56-3.835-1.648a6.067 6.067 0 01-1.446-4.267v-.06zm2.567.235a4.519 4.519 0 00.738 2.737 2.337 2.337 0 002.006 1 2.337 2.337 0 002.006-1A5.159 5.159 0 0075.948 21a4.378 4.378 0 00-.738-2.707c-.472-.618-1.21-1-2.006-1-.797 0-1.534.382-2.006 1a4.557 4.557 0 00-.738 2.913zM80.61 12.467c-.03-.353.118-.706.353-.971.266-.265.65-.412 1.033-.383a1.4 1.4 0 011.062.383c.266.265.384.618.384.97 0 .354-.118.707-.384.943a1.442 1.442 0 01-1.062.382 1.442 1.442 0 01-1.062-.382 1.196 1.196 0 01-.325-.942zm2.714 14.243h-2.567v-11.3h2.567v11.3z" fill="#fff"/><path fill-rule="evenodd" clip-rule="evenodd" d="M88.428 15.41l.088 1.324c.797-1 2.006-1.56 3.305-1.5 2.36 0 3.57 1.353 3.599 4.06v7.475h-2.567v-7.445a2.36 2.36 0 00-.472-1.648 1.974 1.974 0 00-1.534-.53c-1.003 0-1.918.589-2.301 1.5v8.035h-2.508V15.41h2.39z" fill="#fff"/><path fill-rule="evenodd" clip-rule="evenodd" d="M23.462 21.796c-1.564 6.15-7.819 9.887-13.985 8.328-6.195-1.56-9.942-7.77-8.408-13.95 1.534-6.18 7.76-9.916 13.955-8.416a11.55 11.55 0 017.14 5.268 11.405 11.405 0 011.298 8.77z" fill="#919195"/><path d="M17.325 17.234c.236-1.53-.944-2.354-2.567-2.913l.531-2.06-1.268-.324-.502 2.03-1.032-.235.501-2.03-1.268-.324-.502 2.06-.797-.177-1.77-.5-.324 1.354s.944.206.914.235c.354.06.62.383.59.736l-.59 2.354-.855 3.296a.418.418 0 01-.236.265.494.494 0 01-.354.03l-.885-.06-.62 1.443 1.652.412.915.235-.531 2.119 1.268.323.531-2.089 1.004.265-.561 2.001 1.298.324.502-2.09c2.183.412 3.805.236 4.484-1.648.295-.559.325-1.206.118-1.795a2.2 2.2 0 00-1.269-1.294 2.038 2.038 0 001.653-1.884l-.03-.059zm-2.95 4.061c-.384 1.648-3.039.736-3.895.5l.679-2.766c.856.206 3.629.648 3.216 2.266zm.383-4.09c-.354 1.442-2.566.706-3.304.53l.65-2.531c.766.176 3.067.5 2.713 2h-.059z" fill="#fff"/></g><defs><clipPath id="clip0_4853_338861"><path fill="#fff" transform="translate(.478)" d="M0 0h95v38H0z"/></clipPath></defs></svg>