<svg width="91" height="91" fill="none" xmlns="http://www.w3.org/2000/svg"><path d="M45.5 0l2.181 6.633c4.454 13.542 6.681 20.313 11.527 25.159 4.846 4.846 11.617 7.073 25.16 11.527L91 45.5l-6.633 2.181c-13.542 4.454-20.313 6.681-25.159 11.527-4.846 4.846-7.073 11.617-11.527 25.16L45.5 91l-2.181-6.633c-4.454-13.542-6.681-20.313-11.527-25.159-4.846-4.846-11.617-7.073-25.16-11.527L0 45.5l6.633-2.181c13.542-4.454 20.313-6.681 25.159-11.527 4.846-4.846 7.073-11.617 11.527-25.16L45.5 0z" fill="url(#paint0_linear_4066_189193)"/><defs><linearGradient id="paint0_linear_4066_189193" x1="9" y1="71" x2="85" y2="23" gradientUnits="userSpaceOnUse"><stop stop-color="#25FFF0" stop-opacity=".35"/><stop offset="1" stop-color="#25FFF0" stop-opacity="0"/></linearGradient></defs></svg>