<svg width="32" height="32" fill="none" xmlns="http://www.w3.org/2000/svg"><path d="M19.967 4.025l1.28-2.309a.259.259 0 00-.101-.35.258.258 0 00-.35.1L19.503 3.8a8.721 8.721 0 00-7.004 0l-1.294-2.333a.258.258 0 10-.453.249l1.28 2.31a7.395 7.395 0 00-4.123 6.5h16.183a7.394 7.394 0 00-4.125-6.5zm-7.7 3.54a.676.676 0 110-1.351.676.676 0 010 1.351zm7.469 0a.676.676 0 110-1.351.676.676 0 010 1.351zm-11.83 15.33a1.955 1.955 0 001.96 1.958h1.298v4a1.814 1.814 0 103.628 0v-4h2.419v4a1.813 1.813 0 103.626 0v-4h1.299a1.955 1.955 0 001.957-1.957v-11.73H7.907v11.729zm-2.489-12.04a1.816 1.816 0 00-1.813 1.814v7.559a1.813 1.813 0 003.627 0v-7.559a1.816 1.816 0 00-1.814-1.813v-.001zm21.163 0a1.816 1.816 0 00-1.813 1.814v7.559a1.814 1.814 0 003.626 0v-7.559a1.816 1.816 0 00-1.813-1.813v-.001z" fill="#4ECB71"/></svg>