<svg width="40" height="40" fill="none" xmlns="http://www.w3.org/2000/svg"><path d="M20.833 30c0 .46-.373.833-.833.833H8.333C4.517 30.833 2.5 28.817 2.5 25V11.667c0-3.817 2.017-5.834 5.833-5.834h20c3.817 0 5.834 2.017 5.834 5.834v6.666a.834.834 0 01-1.667 0v-6.666c0-2.882-1.285-4.167-4.167-4.167h-20c-2.881 0-4.166 1.285-4.166 4.167V25c0 2.882 1.285 4.167 4.166 4.167H20c.46 0 .833.373.833.833zM7.083 18.345a1.25 1.25 0 102.501 0 1.25 1.25 0 00-2.5 0zm17.084-.012a5.84 5.84 0 01-5.834 5.834 5.84 5.84 0 01-5.833-5.834 5.84 5.84 0 015.833-5.833 5.84 5.84 0 015.834 5.833zm-1.667 0a4.172 4.172 0 00-4.167-4.166 4.172 4.172 0 00-4.166 4.166 4.172 4.172 0 004.166 4.167 4.172 4.172 0 004.167-4.167zm15 10.834a6.673 6.673 0 01-6.667 6.666 6.673 6.673 0 01-6.666-6.666 6.673 6.673 0 016.666-6.667 6.673 6.673 0 016.667 6.667zm-1.667 0c0-2.757-2.243-5-5-5-2.756 0-5 2.243-5 5 0 2.756 2.244 5 5 5 2.757 0 5-2.244 5-5zm-4.166-.345V26.98a.834.834 0 00-1.667 0v2.187a.84.84 0 00.243.59l1.562 1.561a.837.837 0 001.18 0 .834.834 0 000-1.178l-1.318-1.318z" fill="#FF230A"/></svg>