<svg width="40" height="40" fill="none" xmlns="http://www.w3.org/2000/svg"><path d="M34.768 11.925a2.468 2.468 0 00-2.721-.092l-4.155 2.514a.806.806 0 01-1.092-.245l-4.733-7.157c-.922-1.392-3.215-1.392-4.136 0l-4.728 7.152a.812.812 0 01-1.1.248l-4.15-2.51a2.462 2.462 0 00-2.721.092 2.47 2.47 0 00-1.012 2.545l2.725 12.186-.937 5.567a1.666 1.666 0 001.645 1.943h24.695a1.666 1.666 0 001.645-1.943l-.937-5.567 2.726-12.186.005-.02a2.47 2.47 0 00-1.019-2.527zM7.652 32.5l.841-5h23.014l.841 5H7.652zM34.15 14.118l-2.618 11.715H8.468L5.852 14.128a.812.812 0 01.336-.836.806.806 0 01.903-.03l4.15 2.51a2.473 2.473 0 003.354-.754l4.728-7.151c.307-.464 1.05-.464 1.355 0l4.734 7.155a2.464 2.464 0 003.343.751l4.155-2.513a.818.818 0 01.903.03.813.813 0 01.337.828z" fill="#FF230A"/></svg>