<svg width="40" height="40" fill="none" xmlns="http://www.w3.org/2000/svg"><path d="M16.682 17.5a6.673 6.673 0 006.666-6.667 6.673 6.673 0 00-6.666-6.666 6.673 6.673 0 00-6.667 6.666 6.673 6.673 0 006.667 6.667zm0-11.667c2.756 0 5 2.244 5 5 0 2.757-2.244 5-5 5-2.757 0-5-2.243-5-5 0-2.756 2.241-5 5-5zm5.806 16.082a.835.835 0 01-.953.69A9.853 9.853 0 0020 22.5h-6.667c-6.96 0-7.5 5.765-7.5 7.533 0 2.859 1.285 4.134 4.167 4.134h8.333a.834.834 0 010 1.666H10c-3.762 0-5.833-2.06-5.833-5.8 0-4.243 2.4-9.2 9.166-9.2H20c.68 0 1.268.042 1.798.127a.83.83 0 01.69.955zm13.887 2.963c-.822-1.005-2.007-1.538-3.427-1.545h-.02c-1.42 0-2.353.697-2.93 1.389-.576-.692-1.51-1.389-2.931-1.389h-.02c-1.42.007-2.604.542-3.425 1.547-.999 1.218-1.355 2.998-.984 4.885.94 4.775 6.77 7.432 7.018 7.543a.832.832 0 00.68 0c.247-.111 6.077-2.77 7.019-7.543.376-1.888.018-3.668-.98-4.887zm-.65 4.565c-.66 3.335-4.544 5.569-5.725 6.177-1.182-.608-5.065-2.842-5.725-6.177-.272-1.376-.034-2.686.638-3.506.505-.617 1.225-.932 2.142-.935h.012c1.556 0 2.121 1.55 2.143 1.61a.83.83 0 00.785.563H30a.84.84 0 00.787-.558c.023-.067.59-1.615 2.144-1.615h.011c.919.003 1.639.318 2.144.935.67.816.908 2.128.638 3.506z" fill="#FF230A"/></svg>