<svg width="40" height="40" fill="none" xmlns="http://www.w3.org/2000/svg"><path d="M33.333 7.5h-2.5A3.337 3.337 0 0027.5 4.167h-15A3.337 3.337 0 009.166 7.5h-2.5a2.503 2.503 0 00-2.5 2.5v2.75c0 4.107 3.222 6.093 5.817 6.362 1.522 3.693 5.028 6.36 9.183 6.678v3.433c-3.263.287-5 2.254-5 5.775v.834h11.667V35c0-3.522-1.736-5.488-5-5.775v-3.433c4.157-.319 7.662-2.985 9.184-6.679 2.595-.268 5.816-2.255 5.816-6.361V10c0-1.378-1.121-2.5-2.5-2.5zm-27.5 5.25V10c0-.46.375-.833.833-.833h2.5V15c0 .797.092 1.572.257 2.32-1.601-.43-3.59-1.737-3.59-4.57zm18.293 21.417h-8.251c.238-2.297 1.538-3.334 4.127-3.334 2.588 0 3.886 1.037 4.124 3.334zm-4.12-10L20 24.165c-.002 0-.003.002-.007.002-5.05-.004-9.16-4.114-9.16-9.167V7.5c0-.92.747-1.667 1.667-1.667h15c.92 0 1.666.747 1.666 1.667V15c0 5.052-4.11 9.163-9.16 9.167zm14.16-11.417c0 2.833-1.988 4.14-3.59 4.57.164-.748.257-1.523.257-2.32V9.167h2.5c.459 0 .834.373.834.833v2.75z" fill="#FF230A"/></svg>