<svg width="40" height="40" fill="none" xmlns="http://www.w3.org/2000/svg"><path d="M34.282 26.268a3.018 3.018 0 00-3.08.039l-3.757 2.253a3.339 3.339 0 00-3.279-2.728H15a4.152 4.152 0 00-2.889 1.175A2.494 2.494 0 0010 25.832H6.667a2.503 2.503 0 00-2.5 2.5v6.666c0 1.379 1.121 2.5 2.5 2.5H10c.89 0 1.668-.471 2.111-1.175A4.145 4.145 0 0015 37.498h9.328c1.697 0 3.36-.583 4.687-1.643l5.672-4.538a3.042 3.042 0 001.146-2.389c0-1.115-.58-2.11-1.551-2.66zM10.832 35c0 .46-.373.833-.833.833H6.667A.834.834 0 015.833 35v-6.667c0-.46.373-.833.833-.833H10c.46 0 .833.373.833.833V35zm22.812-4.983l-5.672 4.538a5.851 5.851 0 01-3.645 1.278H15a2.503 2.503 0 01-2.5-2.5V30c0-1.378 1.121-2.5 2.5-2.5h9.166a1.67 1.67 0 011.667 1.667 1.67 1.67 0 01-1.666 1.666h-5.834a.834.834 0 000 1.667h5.834a3.337 3.337 0 002.961-1.805l4.93-2.958c.435-.264.96-.269 1.402-.019.441.25.706.704.706 1.212 0 .425-.19.822-.521 1.087zM20 22.5c5.515 0 10-4.485 10-10s-4.485-10-10-10-10 4.485-10 10 4.485 10 10 10zm0-18.333c4.595 0 8.333 3.738 8.333 8.333 0 4.595-3.738 8.333-8.333 8.333-4.595 0-8.334-3.738-8.334-8.333 0-4.595 3.739-8.333 8.334-8.333zm-2.724 7.823a3.069 3.069 0 01-.61-1.842c0-1.5 1.075-2.738 2.476-2.97v-.511a.834.834 0 011.666 0v.503c1.31.192 2.358 1.26 2.509 2.648a.833.833 0 01-.739.919.84.84 0 01-.918-.739c-.073-.685-.619-1.2-1.265-1.2h-.788c-.702 0-1.274.607-1.274 1.352 0 .308.097.605.274.837.18.24.42.403.698.475l1.808.466c1.309.344 2.22 1.547 2.22 2.927 0 .798-.303 1.552-.851 2.12a2.894 2.894 0 01-1.674.855v.503a.834.834 0 01-1.666 0v-.508c-1.287-.21-2.31-1.273-2.459-2.643a.833.833 0 111.657-.18c.073.685.618 1.2 1.265 1.2h.788c.332 0 .647-.139.889-.387.246-.257.383-.6.383-.963 0-.624-.4-1.164-.972-1.314l-1.808-.466a2.94 2.94 0 01-1.609-1.082z" fill="#FF230A"/></svg>