<svg width="40" height="40" fill="none" xmlns="http://www.w3.org/2000/svg"><path d="M26.667 4.167H13.333C9.517 4.167 7.5 6.183 7.5 10v20c0 3.817 2.017 5.833 5.833 5.833h13.334c3.816 0 5.833-2.016 5.833-5.833V10c0-3.817-2.017-5.833-5.833-5.833zM30.833 30c0 2.882-1.285 4.167-4.166 4.167H13.333c-2.881 0-4.166-1.285-4.166-4.167V10c0-2.882 1.285-4.167 4.166-4.167h13.334c2.881 0 4.166 1.285 4.166 4.167v20zm-7.5-20c0 .46-.373.833-.833.833h-5a.834.834 0 010-1.666h5c.46 0 .833.373.833.833zM21.25 30a1.25 1.25 0 11-2.5 0 1.25 1.25 0 012.5 0z" fill="#FF230A"/></svg>