<svg width="40" height="40" fill="none" xmlns="http://www.w3.org/2000/svg"><path d="M26.67 10.785l1.698-2.833a2.47 2.47 0 00.032-2.519 2.47 2.47 0 00-2.175-1.266h-12.45c-.912 0-1.725.473-2.175 1.266a2.47 2.47 0 00.032 2.519l1.698 2.833C8.355 15.29 5.833 20.07 5.833 25c0 2.542 1.022 10.833 14.167 10.833S34.167 27.542 34.167 25c0-4.93-2.522-9.71-7.497-14.215zm-13.61-3.69a.82.82 0 01-.01-.84.818.818 0 01.725-.422h12.45c.438 0 .653.295.725.422a.818.818 0 01-.01.838l-1.812 3.022H14.873l-1.813-3.02zM20 34.167C8.72 34.167 7.5 27.757 7.5 25c0-4.525 2.44-8.97 7.229-13.217h10.543C30.06 16.03 32.5 20.475 32.5 25c0 2.757-1.218 9.167-12.5 9.167zm3.75-8.145c0 .885-.341 1.718-.962 2.348a3.24 3.24 0 01-1.954.945V30a.834.834 0 01-1.667 0v-.683a3.301 3.301 0 01-2.897-2.93.834.834 0 011.657-.184c.093.845.787 1.482 1.615 1.482h.918c.428 0 .834-.173 1.142-.485.311-.315.483-.733.483-1.178a1.66 1.66 0 00-1.233-1.615l-2.112-.534a3.309 3.309 0 01-1.8-1.191 3.334 3.334 0 01-.688-2.039 3.308 3.308 0 012.917-3.291v-.685a.834.834 0 011.666 0v.683a3.301 3.301 0 012.897 2.93.834.834 0 01-.737.92.84.84 0 01-.92-.737c-.093-.845-.787-1.481-1.615-1.481h-.918c-.897 0-1.625.746-1.625 1.663 0 .375.121.738.343 1.022.223.293.538.501.892.591l2.111.534a3.328 3.328 0 012.487 3.23z" fill="#FF230A"/></svg>