<svg width="40" height="40" fill="none" xmlns="http://www.w3.org/2000/svg"><path d="M32.5 10.833h-2.522a4.129 4.129 0 00.855-2.5 4.171 4.171 0 00-4.166-4.166 4.156 4.156 0 00-3.219 1.53c-.05.061-2.298 3.053-3.448 4.583-1.152-1.532-3.402-4.525-3.457-4.593a4.143 4.143 0 00-3.21-1.52 4.171 4.171 0 00-4.167 4.166c0 .942.325 1.802.855 2.5H7.5a3.337 3.337 0 00-3.333 3.334V20c0 .46.373.833.833.833h.833V30c0 3.817 2.017 5.833 5.833 5.833h16.667c3.817 0 5.834-2.016 5.834-5.833v-9.167H35c.46 0 .833-.373.833-.833v-5.833a3.337 3.337 0 00-3.333-3.334zm-7.757-4.086a2.487 2.487 0 011.924-.914c1.378 0 2.5 1.122 2.5 2.5 0 1.379-1.122 2.5-2.5 2.5h-4.999c1.18-1.57 2.992-3.978 3.075-4.086zm-13.91 1.586c0-1.378 1.122-2.5 2.5-2.5.745 0 1.445.334 1.91.897.093.12 1.907 2.533 3.088 4.103h-4.998a2.503 2.503 0 01-2.5-2.5zm-5 5.834c0-.92.747-1.667 1.667-1.667h11.666v6.667H5.833v-5zM7.5 30v-9.167h11.666v13.334h-7.5C8.785 34.167 7.5 32.882 7.5 30zm25 0c0 2.882-1.285 4.167-4.167 4.167h-7.5V20.833H32.5V30zm1.666-10.833H20.834V12.5H32.5c.92 0 1.666.747 1.666 1.667v5z" fill="#FF230A"/></svg>