<svg width="32" height="32" fill="none" xmlns="http://www.w3.org/2000/svg"><path d="M22.886 28.263c-1.465 1.408-3.064 1.185-4.603.519-1.63-.681-3.124-.711-4.842 0-2.152.918-3.288.652-4.573-.519C1.575 20.813 2.65 9.466 10.93 9.051c2.018.104 3.422 1.096 4.603 1.185 1.763-.355 3.452-1.378 5.335-1.244 2.257.178 3.96 1.066 5.081 2.666-4.662 2.77-3.557 8.858.718 10.562-.852 2.222-1.958 4.429-3.796 6.058l.015-.015zm-7.502-19.3c-.225-3.304 2.48-6.03 5.589-6.296.433 3.821-3.497 6.665-5.59 6.295z" fill="#fff"/></svg>