<svg width="120" height="28" fill="none" xmlns="http://www.w3.org/2000/svg"><g clip-path="url(#clip0_4466_10148)"><path fill-rule="evenodd" clip-rule="evenodd" d="M41.765 0H0v18.155a9.684 9.684 0 009.685 9.685h41.767V9.685C51.452 4.336 47.115 0 41.767 0m4.708 10.36a5.448 5.448 0 00-5.448-5.448H34.37v6.514h3.97v11.502h8.135V10.36zM4.976 4.914V17.48a5.448 5.448 0 005.448 5.448h2.687v-9.855l10.29 9.855h8.258V4.914h-8.135v9.105L14.15 4.914H4.976z" fill="#FF230A"/><path d="M60.627 0h13.465c4.502 0 5.75 1.733 5.75 3.593v.296c0 2.029-1.734 2.855-2.495 3.065 1.077.273 3.382 1.205 3.382 3.952v.296c0 2.495-1.415 4.524-6.511 4.524H60.626V0zm4.924 3.319v2.557h7.693c1.374 0 1.713-.634 1.713-1.268v-.042c0-.655-.337-1.247-1.713-1.247h-7.693zm0 5.896v3.087h8.117c1.65 0 1.945-.908 1.945-1.544v-.084c0-.676-.318-1.46-1.945-1.46H65.55zM99.434 0v3.573h-11.71v2.325h11.434V9.49H87.726v2.579h11.921v3.656H82.862V0h16.572zM101.44 0h18.517v3.72h-6.785v12.006h-4.969V3.721h-6.763V0z" fill="#fff"/><path d="M65.539 26.84l.112.81c-.614.224-1.322.336-2.12.336-1.063 0-1.815-.238-2.257-.71-.432-.482-.648-1.31-.648-2.48 0-1.172.216-2 .648-2.482.44-.482 1.194-.724 2.257-.724.814 0 1.488.104 2.02.312l-.162.772a24.831 24.831 0 00-1.646-.062c-.697 0-1.183.154-1.457.462-.266.308-.4.881-.4 1.721 0 .84.134 1.412.4 1.72.274.308.76.461 1.457.461.698 0 1.28-.046 1.796-.137M67.086 22.764l-.112-.886c1.098-.192 2.081-.288 2.955-.288.74 0 1.284.15 1.633.45.35.3.524.818.524 1.558v4.238h-.947l-.138-.96c-.698.716-1.508 1.072-2.431 1.072-.566 0-1.018-.15-1.358-.448-.332-.3-.5-.724-.5-1.271v-.636c0-.482.15-.856.448-1.122.3-.266.724-.398 1.272-.398h2.443V23.6c-.008-.374-.096-.632-.262-.772-.166-.142-.482-.212-.948-.212-.466 0-1.317.05-2.581.15m.848 2.99v.325c0 .3.07.515.212.648s.365.2.673.2c.724 0 1.41-.282 2.058-.848v-1.098h-2.22c-.265.008-.453.08-.56.212-.107.124-.161.312-.161.56M76.647 25.445l-1.696-.424c-.508-.134-.864-.328-1.072-.586-.207-.266-.311-.647-.311-1.147 0-.672.178-1.126.535-1.358.366-.232.99-.344 1.87-.336.971.016 1.837.088 2.593.212l-.1.872a105.938 105.938 0 00-2.307-.062c-.59 0-.976.038-1.16.112-.174.066-.262.254-.262.56 0 .142.012.258.038.35.024.083.088.153.186.211.108.058.192.1.25.124l.386.112 1.721.424c.516.134.88.324 1.098.574.216.24.324.62.324 1.134 0 .715-.2 1.187-.598 1.421-.39.224-1.072.336-2.043.336-.848 0-1.654-.058-2.42-.174l.089-.898c.465.042 1.16.062 2.08.062.683 0 1.14-.046 1.372-.136.232-.1.35-.303.35-.611a.86.86 0 00-.05-.324.424.424 0 00-.212-.224 1.2 1.2 0 00-.262-.112 3.453 3.453 0 00-.4-.112zM80.607 19.161h.574c.232 0 .35.116.35.35v.698c0 .24-.116.362-.35.362h-.574c-.232 0-.35-.12-.35-.362v-.698c0-.232.116-.35.35-.35zm.886 8.677h-1.198v-6.084h1.198v6.084zM84.434 21.754l.074.936c.955-.732 1.853-1.098 2.693-1.098.54 0 .948.146 1.221.436.282.282.424.698.424 1.246v4.562h-1.21v-4.214c0-.382-.057-.644-.173-.786-.108-.15-.308-.224-.598-.224-.316 0-.632.07-.948.212-.316.142-.748.374-1.297.698v4.314h-1.21v-6.084h1.022l.002.002zM91.053 22.328c.44-.49 1.188-.736 2.244-.736 1.055 0 1.803.246 2.243.736.44.49.66 1.318.66 2.481 0 1.164-.22 1.985-.66 2.47-.44.481-1.188.723-2.243.723-1.056 0-1.804-.24-2.244-.724-.44-.482-.661-1.305-.661-2.469 0-1.163.22-1.991.661-2.481zm3.541.748c-.232-.308-.664-.462-1.297-.462-.634 0-1.064.154-1.298.462-.232.308-.35.885-.35 1.733 0 .848.116 1.414.35 1.72.232.307.666.461 1.298.461.631 0 1.063-.154 1.297-.461.232-.308.35-.882.35-1.72s-.116-1.425-.35-1.733z" fill="#B3B3B3"/></g><defs><clipPath id="clip0_4466_10148"><path fill="#fff" d="M0 0h119.957v28H0z"/></clipPath></defs></svg>