<svg width="65" height="36" fill="none" xmlns="http://www.w3.org/2000/svg"><g clip-path="url(#clip0_4059_187369)" fill-rule="evenodd" clip-rule="evenodd"><path d="M22.655 27.179l3.22-18.252h5.217l-3.219 18.252h-5.218zM46.635 9.351a14.87 14.87 0 00-4.663-.742c-5.106 0-8.658 2.44-8.77 6.048 0 2.547 2.665 4.033 4.552 4.882 2.11.955 2.775 1.485 2.775 2.334 0 1.168-1.665 1.698-3.108 1.698-2.11 0-3.22-.212-4.885-.955l-.777-.212-.666 4.032c1.221.53 3.442.955 5.773.955 5.44 0 8.992-2.44 9.103-6.154 0-2.123-1.443-3.715-4.44-4.988-1.777-.849-2.887-1.38-2.887-2.228 0-.743 1-1.592 2.997-1.592 1.666 0 2.887.318 3.886.636l.444.213.666-3.927zm13.432-.424H55.96c-1.221 0-2.11.318-2.664 1.486l-7.771 16.766h5.44s.888-2.228 1.11-2.759h6.66c.222.637.666 2.759.666 2.759h4.774L60.066 8.927zm-6.438 11.779c.444-1.061 1.998-5.094 1.998-5.094s.444-1.06.777-1.804l.333 1.592 1.221 5.306h-4.33zM18.215 8.927L13.22 21.343l-.556-2.547c-.999-2.865-3.885-6.049-7.215-7.64l4.662 16.023h5.44l8.215-18.252h-5.551z" fill="#01549A"/><path d="M8.476 9.196H.112L0 9.599c6.58 1.414 10.93 4.848 12.714 8.988l-1.896-7.877C10.595 9.6 9.59 9.196 8.476 9.196z" fill="#F7A707"/></g><defs><clipPath id="clip0_4059_187369"><path fill="#fff" d="M0 0h64.174v36H0z"/></clipPath></defs></svg>