<svg width="65" height="36" fill="none" xmlns="http://www.w3.org/2000/svg"><g clip-path="url(#clip0_4059_187387)"><path d="M60.116 32.87H.696L5.212 3.913H64.87L60.116 32.87z" fill="#000"/><path d="M20.13 13.773c-2.739 0-4.818 2.297-4.818 5.035 0 2.477 1.706 4.203 4.03 4.203 2.738 0 4.802-2.362 4.802-5.1.014-2.493-1.691-4.138-4.014-4.138zm-.616 6.908c-1.048 0-1.78-.782-1.78-1.989 0-1.335.905-2.605 2.21-2.605 1.046 0 1.777.815 1.777 2.021.015 1.352-.902 2.573-2.209 2.573h.002zm17.089-6.908c-2.739 0-4.803 2.297-4.803 5.035 0 2.477 1.706 4.203 4.029 4.203 2.739 0 4.804-2.362 4.804-5.1.015-2.493-1.693-4.138-4.03-4.138zm-.601 6.908c-1.048 0-1.778-.782-1.778-1.989 0-1.335.903-2.605 2.208-2.605 1.046 0 1.777.815 1.777 2.021 0 1.352-.903 2.573-2.209 2.573h.002zM48.69 16.69c0-1.663-1.132-2.723-3.197-2.723h-2.897l-1.275 8.849h2.437l.402-2.787h.114l1.29 2.788h2.796l-1.792-3.098c1.334-.521 2.121-1.645 2.121-3.03h.001zm-3.9 1.467h-.358l.272-1.858h.33c.76 0 1.16.26 1.16.831 0 .669-.573 1.027-1.404 1.027zm-32.273-.654c-.932-.538-1.134-.668-1.134-.962 0-.358.373-.538.875-.538.588 0 1.478.082 2.352 1.028a6.115 6.115 0 011.032-2.053c-1.232-.8-2.38-1.207-3.426-1.207-2.08 0-3.283 1.272-3.283 2.805 0 1.32.873 2.003 1.906 2.607.932.538 1.162.717 1.162 1.043 0 .359-.388.555-.904.555-.888 0-1.921-.636-2.537-1.288l-.358 2.46a4.414 4.414 0 002.938 1.06c2.15 0 3.312-1.24 3.312-2.82 0-1.305-.746-2.005-1.935-2.69zm18.065.343h-2.867l.23-1.55h3.067a6.022 6.022 0 011.777-2.327h-5.017c-1.118 0-2.064.864-2.224 2.036l-.973 6.827h2.437l.401-2.787h2.897l.215-1.514c.014-.245.029-.457.058-.685h-.001zm18.166-3.877c.658.57 1.06 1.37 1.146 2.33h2.037l-.932 6.517h2.437l.932-6.517h2.266l.329-2.332h-8.215v.002z" fill="#fff"/></g><defs><clipPath id="clip0_4059_187387"><path fill="#fff" transform="translate(.696)" d="M0 0h64.174v36H0z"/></clipPath></defs></svg>