<svg width="58" height="22" fill="none" xmlns="http://www.w3.org/2000/svg"><g clip-path="url(#clip0_19722_13316)"><path d="M18.953 12.002V2.64h3.16a3.794 3.794 0 012.383.638c.277.224.497.513.64.843.142.33.203.69.177 1.05.005.41-.113.812-.339 1.153-.247.361-.593.64-.996.8.464.11.875.387 1.156.779.282.396.426.877.409 1.366.024.38-.037.76-.18 1.11a2.469 2.469 0 01-.648.915 3.57 3.57 0 01-2.382.708h-3.38zm1.605-5.425h1.565c.42.027.836-.094 1.176-.344a1.173 1.173 0 00.42-1.012 1.2 1.2 0 00-.39-1.012 1.912 1.912 0 00-1.216-.314h-1.555v2.682zm0 1.194v2.936h1.775c.428.024.85-.113 1.186-.385a1.348 1.348 0 00.419-1.012 1.367 1.367 0 00-.376-1.11 1.324 1.324 0 00-1.09-.388l-1.914-.04zm6.44-4.534a.821.821 0 01.22-.597.847.847 0 01.647-.243.855.855 0 01.648.243.812.812 0 01.22.597.832.832 0 01-.22.587.895.895 0 01-.648.233.875.875 0 01-.648-.233.82.82 0 01-.22-.587h.001zm1.635 8.765h-1.545V5.04h1.545v6.963z" fill="#fff"/><path fill-rule="evenodd" clip-rule="evenodd" d="M32.232 3.348v1.69h1.216v1.164h-1.216v3.887a.901.901 0 00.16.577.743.743 0 00.558.172c.18-.001.361-.021.538-.06v1.204c-.324.096-.66.147-.997.152-1.186 0-1.774-.668-1.774-2.024V6.202H29.57V5.04h1.137v-1.69h1.525zm5.203 7.53c.363.025.72-.095.997-.334a1.161 1.161 0 00.41-.84h1.455c-.024.433-.165.85-.41 1.205a2.555 2.555 0 01-.996.89 2.955 2.955 0 01-1.386.335c-.425.02-.85-.055-1.245-.22a2.922 2.922 0 01-1.037-.732 3.793 3.793 0 01-.838-2.611v-.162a3.72 3.72 0 01.838-2.54c.287-.32.641-.571 1.036-.736.395-.164.82-.238 1.246-.216a2.756 2.756 0 011.994.719 2.634 2.634 0 01.817 1.903h-1.515a1.46 1.46 0 00-.398-1.013 1.294 1.294 0 00-.997-.384 1.329 1.329 0 00-1.147.546 2.806 2.806 0 00-.418 1.67v.253c-.041.59.102 1.178.408 1.68.131.194.31.35.517.453.208.103.439.15.67.135z" fill="#fff"/><path d="M41.124 8.47a4.223 4.223 0 01.399-1.842 2.939 2.939 0 011.146-1.276 3.113 3.113 0 011.655-.435 2.95 2.95 0 011.22.209c.388.155.74.39 1.033.692.597.656.931 1.515.937 2.409v.364a4.193 4.193 0 01-.389 1.842 2.95 2.95 0 01-1.116 1.255c-.508.3-1.087.455-1.675.446a2.95 2.95 0 01-1.272-.245 2.992 2.992 0 01-1.051-.767 3.781 3.781 0 01-.877-2.622l-.01-.03zm1.545.131a2.774 2.774 0 00.439 1.68 1.388 1.388 0 001.216.607c.236.01.47-.04.682-.149.211-.108.392-.269.524-.468.328-.539.481-1.169.439-1.801a2.754 2.754 0 00-.449-1.67 1.487 1.487 0 00-2.412 0 3.072 3.072 0 00-.44 1.791v.01zm6.14-5.364a.822.822 0 01.22-.597.845.845 0 01.618-.243.856.856 0 01.648.243.821.821 0 01.23.597.837.837 0 01-.23.587.894.894 0 01-.648.233.875.875 0 01-.648-.233.828.828 0 01-.19-.587zm1.636 8.765h-1.546V5.04h1.546v6.963z" fill="#fff"/><path fill-rule="evenodd" clip-rule="evenodd" d="M53.545 5.039l.05.81c.237-.304.541-.546.888-.707a2.401 2.401 0 011.106-.225c1.429 0 2.156.83 2.183 2.49v4.595h-1.545V7.458a1.443 1.443 0 00-.28-1.012 1.193 1.193 0 00-.927-.325 1.47 1.47 0 00-.833.251c-.246.166-.439.403-.552.68v4.95H52.1V5.04h1.445z" fill="#fff"/><path fill-rule="evenodd" clip-rule="evenodd" d="M14.268 8.965c-.946 3.785-4.73 6.08-8.46 5.13C2.075 13.145-.195 9.31.73 5.52 1.656 1.728 5.428-.588 9.164.34a6.932 6.932 0 012.48 1.178 7.047 7.047 0 011.841 2.055 7.191 7.191 0 01.783 5.391z" fill="#F7931A"/><path d="M10.56 6.162c.14-.941-.568-1.447-1.545-1.791l.319-1.276-.768-.202-.309 1.255-.618-.152.31-1.255-.769-.192-.309 1.275-.488-.111-1.067-.304-.199.83s.568.132.558.142c.106.015.202.07.269.155a.43.43 0 01.09.3l-.359 1.458-.508 2.024a.275.275 0 01-.136.168.266.266 0 01-.213.014l-.558-.03-.38.89.998.254.548.151-.32 1.296.769.192.319-1.285.608.162-.32 1.224.778.193.31-1.286c1.315.253 2.302.142 2.71-1.012a1.38 1.38 0 00-.234-1.58 1.345 1.345 0 00-.463-.312c.268-.054.512-.196.692-.405.18-.208.288-.472.305-.75l-.02-.04zm-1.785 2.5c-.239 1.012-1.844.446-2.362.314l.419-1.71c.518.13 2.193.394 1.943 1.396zm.24-2.51c-.22.88-1.555.435-1.994.324l.389-1.559c.458.112 1.854.314 1.635 1.235h-.03zM49.378 16.708c.215.09.398.24.528.436.123.2.185.432.18.668.008.236-.055.468-.18.668a1.14 1.14 0 01-.528.445c-.251.11-.524.162-.798.152h-.807v1.012h-.658v-3.523h1.465c.273-.008.544.04.798.142zm-.18 1.65a.657.657 0 00.23-.526.687.687 0 00-.23-.537.985.985 0 00-.657-.182h-.768v1.478h.778a.987.987 0 00.648-.233zm3.44-.698a1.156 1.156 0 01.329.88v1.61h-.618v-.335a.72.72 0 01-.33.274c-.164.068-.34.103-.518.101a1.22 1.22 0 01-.538-.111.87.87 0 01-.349-.284.83.83 0 01.14-1.012c.268-.158.579-.226.887-.192h.698a.585.585 0 00-.17-.446.75.75 0 00-.488-.141 1.385 1.385 0 00-.449.07c-.134.044-.26.112-.369.203l-.249-.476c.155-.112.327-.197.509-.253.208-.052.422-.08.638-.08a1.28 1.28 0 01.877.192zm-.598 1.943a.575.575 0 00.269-.324v-.334h-.668c-.359 0-.548.121-.548.364 0 .112.051.217.14.284.111.074.244.11.378.101.148.01.297-.02.429-.091zm1.645-2.763a.361.361 0 01-.122-.273.368.368 0 01.122-.274.389.389 0 01.288-.111.392.392 0 01.29.101.336.336 0 01.11.263.37.37 0 01-.11.294.435.435 0 01-.578 0zm0 .567h.627v2.743h-.677l.05-2.743zm4.087-1.073v3.815h-.618v-.354a1 1 0 01-.39.314c-.159.06-.327.091-.498.091a1.438 1.438 0 01-.708-.172 1.165 1.165 0 01-.488-.496 1.465 1.465 0 01-.18-.77c0-.253.062-.504.18-.728.11-.212.28-.385.489-.496a1.34 1.34 0 01.707-.172 1.19 1.19 0 01.489.091.937.937 0 01.379.273v-1.396h.638zm-.997 3.198a.653.653 0 00.289-.304.85.85 0 00.11-.465.891.891 0 00-.11-.446.654.654 0 00-.29-.303.837.837 0 00-.817 0 .765.765 0 00-.289.303c-.07.139-.107.29-.11.446.002.158.04.314.11.455a.764.764 0 00.698.41.837.837 0 00.409-.106v.01zM38.9 16.901a.466.466 0 01-.17-.365.491.491 0 01.17-.374.572.572 0 01.419-.142.642.642 0 01.428.131.518.518 0 01.118.579.517.517 0 01-.118.17.671.671 0 01-.847 0zm-.06.465h.997v2.783h-.997v-2.783z" fill="#fff"/><path fill-rule="evenodd" clip-rule="evenodd" d="M43.038 17.579a1.29 1.29 0 01.329.941v1.59h-.997v-1.397c0-.375-.15-.567-.458-.567a.5.5 0 00-.399.162.727.727 0 00-.14.496v1.336h-.996v-2.774h.917v.304c.11-.114.242-.203.388-.263.156-.061.322-.092.489-.091a1.13 1.13 0 01.867.263zm1.236 2.53a1.895 1.895 0 01-.548-.202l.29-.668c.137.089.289.154.448.192.166.044.337.067.508.071.109.021.22.021.329 0a.15.15 0 00.1-.142.143.143 0 00-.037-.087.139.139 0 00-.083-.044 2.168 2.168 0 00-.369-.081 3.599 3.599 0 01-.558-.101.935.935 0 01-.399-.253.725.725 0 01-.16-.496.777.777 0 01.15-.486c.123-.153.285-.269.469-.334.23-.081.473-.122.718-.122.198-.002.396.022.588.071.174.031.342.09.498.172l-.289.668a1.585 1.585 0 00-.797-.202.746.746 0 00-.33.05.153.153 0 00-.1.142c0 .071 0 .112.11.132.127.041.257.068.39.08.188.03.374.071.558.122.147.046.28.13.388.243a.705.705 0 01.17.496.859.859 0 01-.16.496 1.177 1.177 0 01-.468.334c-.237.082-.487.12-.738.111a3.062 3.062 0 01-.678-.162z" fill="#fff"/><path fill-rule="evenodd" clip-rule="evenodd" d="M35.62 20.151a2.566 2.566 0 01-2.836.573 2.61 2.61 0 01-1.167-.972 2.67 2.67 0 010-2.936 2.61 2.61 0 011.168-.973c.476-.2.999-.252 1.504-.15a2.59 2.59 0 011.332.723l.658-.678a3.513 3.513 0 00-1.807-.983 3.48 3.48 0 00-2.04.202c-.645.271-1.197.73-1.585 1.32a3.623 3.623 0 000 3.983c.388.59.94 1.049 1.585 1.32a3.48 3.48 0 002.04.202 3.513 3.513 0 001.807-.983l.06-.06-.718-.588z" fill="url(#paint0_linear_19722_13316)"/><path fill-rule="evenodd" clip-rule="evenodd" d="M33.757 19.239a.885.885 0 01-.668-.197.91.91 0 01-.329-.623.936.936 0 01.2-.68.91.91 0 01.617-.332h.16a.891.891 0 01.628.273l.678-.709a1.845 1.845 0 00-2.635.004 1.914 1.914 0 000 2.675c.727.739 1.906.74 2.635.004l-.678-.699a.881.881 0 01-.608.284z" fill="#fff"/><path d="M36.05 20.018a1.374 1.374 0 01-.557-.517 1.403 1.403 0 01-.201-.738c-.003-.26.066-.514.2-.734.135-.22.328-.398.557-.511.242-.13.514-.193.788-.182.28-.011.558.052.807.182.227.112.417.288.549.506a1.45 1.45 0 01-.549 2.024c-.249.13-.527.193-.807.182a1.646 1.646 0 01-.788-.212zm1.205-.78a.726.726 0 00.17-.475.695.695 0 00-.17-.476.568.568 0 00-.408-.176.56.56 0 00-.537.397.646.646 0 00-.032.255.678.678 0 00.16.496.574.574 0 00.817 0v-.02zM25.044 19.704v-2.277h.787a.986.986 0 01.619.162.534.534 0 01.219.466c0 .104-.03.207-.09.293a.55.55 0 01-.24.182c.112.026.21.09.28.182.066.095.1.209.1.325a.595.595 0 01-.21.495.926.926 0 01-.588.172h-.877zm.468-1.326h.34c.229 0 .348-.1.348-.283a.276.276 0 00-.09-.223.502.502 0 00-.279-.06h-.319v.566zm0 .334v.618h.39a.395.395 0 00.258-.081.272.272 0 00.09-.223.289.289 0 00-.083-.237.277.277 0 00-.236-.077h-.419z" fill="#fff"/><path fill-rule="evenodd" clip-rule="evenodd" d="M28.134 18.45l.458-1.012h.509l-.738 1.447v.83h-.468v-.83l-.738-1.448h.558l.419 1.013z" fill="#fff"/></g><defs><linearGradient id="paint0_linear_19722_13316" x1="133.555" y1="132.101" x2="699.163" y2="546.463" gradientUnits="userSpaceOnUse"><stop stop-color="#FFCB64"/><stop offset=".01" stop-color="#FEC763"/><stop offset=".17" stop-color="#F89D56"/><stop offset=".33" stop-color="#F27B4C"/><stop offset=".49" stop-color="#EE6044"/><stop offset=".65" stop-color="#EB4D3E"/><stop offset=".82" stop-color="#EA423B"/><stop offset="1" stop-color="#E93E3A"/></linearGradient><clipPath id="clip0_19722_13316"><path fill="#fff" transform="translate(.376 .136)" d="M0 0h57.422v21.727H0z"/></clipPath></defs></svg>