<svg width="49" height="36" fill="none" xmlns="http://www.w3.org/2000/svg"><path fill-rule="evenodd" clip-rule="evenodd" d="M8.78 33.653c0-.77.495-1.404 1.304-1.404.774 0 1.295.606 1.295 1.404 0 .8-.521 1.405-1.295 1.405-.809 0-1.304-.633-1.304-1.405zm3.48 0V31.46h-.935v.532c-.296-.394-.746-.642-1.358-.642-1.205 0-2.149.964-2.149 2.304 0 1.341.944 2.305 2.15 2.305.61 0 1.06-.248 1.357-.643v.533h.936v-2.195zm31.584 0c0-.77.495-1.404 1.305-1.404.773 0 1.295.606 1.295 1.404 0 .8-.522 1.405-1.295 1.405-.81 0-1.305-.633-1.305-1.405zm4.527 1.986v.07h.063a.06.06 0 00.034-.01c.008-.005.012-.014.012-.026a.03.03 0 00-.012-.025.06.06 0 00-.035-.009h-.062zm.063-.048c.033 0 .058.007.076.022a.075.075 0 01.026.06.072.072 0 01-.021.053.102.102 0 01-.06.026l.083.098h-.065l-.077-.097h-.025v.097h-.054v-.259h.117zm-.016.347a.203.203 0 00.15-.063.218.218 0 00.06-.154.22.22 0 00-.06-.153.21.21 0 00-.347.069.223.223 0 00.113.285.212.212 0 00.084.016zm0-.495a.278.278 0 01.256.387.283.283 0 01-.256.17.272.272 0 01-.199-.083.27.27 0 01-.08-.196.277.277 0 01.28-.279zm-1.093-1.79v-3.957h-.935v2.295c-.297-.394-.747-.642-1.358-.642-1.205 0-2.15.964-2.15 2.304 0 1.341.945 2.305 2.15 2.305.611 0 1.061-.248 1.358-.643v.533h.935v-2.195zm-23.463-1.45c.603 0 .99.385 1.088 1.065h-2.23c.099-.634.476-1.065 1.142-1.065zm.018-.854c-1.26 0-2.14.936-2.14 2.304 0 1.396.917 2.305 2.203 2.305.647 0 1.24-.165 1.763-.615l-.46-.707c-.359.294-.818.459-1.25.459-.602 0-1.15-.285-1.285-1.074h3.192c.01-.12.018-.239.018-.368-.009-1.368-.836-2.304-2.041-2.304zm11.286 2.304c0-.77.495-1.404 1.304-1.404.773 0 1.295.606 1.295 1.404 0 .8-.522 1.405-1.295 1.405-.81 0-1.304-.633-1.304-1.405zm3.48 0V31.46h-.935v.532c-.296-.394-.746-.642-1.358-.642-1.205 0-2.149.964-2.149 2.304 0 1.341.944 2.305 2.15 2.305.611 0 1.06-.248 1.357-.643v.533h.936v-2.195zm-8.759 0c0 1.332.909 2.305 2.294 2.305.647 0 1.079-.147 1.546-.523l-.45-.772c-.35.258-.719.395-1.123.395-.747-.009-1.296-.56-1.296-1.405 0-.844.55-1.395 1.296-1.404.404 0 .773.137 1.124.395l.45-.772c-.468-.376-.9-.523-1.547-.523-1.385 0-2.294.973-2.294 2.304zm12.051-2.304c-.54 0-.89.257-1.133.642v-.532h-.926v4.389h.935v-2.46c0-.726.306-1.13.917-1.13.19 0 .387.027.585.11l.288-.9a1.956 1.956 0 00-.666-.12zm-25.055.459c-.45-.303-1.07-.46-1.753-.46-1.089 0-1.79.533-1.79 1.406 0 .716.521 1.157 1.484 1.294l.44.064c.513.074.756.212.756.46 0 .34-.342.532-.98.532-.648 0-1.115-.211-1.43-.459l-.441.744c.513.385 1.16.569 1.862.569 1.24 0 1.96-.597 1.96-1.432 0-.772-.567-1.176-1.502-1.313l-.44-.065c-.405-.055-.729-.137-.729-.43 0-.323.306-.515.818-.515.55 0 1.08.211 1.34.376l.405-.771zm12.06-.46c-.54 0-.89.258-1.133.643v-.532h-.927v4.389h.936v-2.46c0-.726.306-1.13.917-1.13.189 0 .387.027.585.11l.287-.9a1.956 1.956 0 00-.665-.12zm-7.977.111h-1.529v-1.331h-.944v1.331h-.872v.872h.872v2.002c0 1.019.387 1.625 1.493 1.625.404 0 .872-.128 1.169-.34l-.27-.817a1.7 1.7 0 01-.827.248c-.468 0-.62-.294-.62-.734V32.33h1.528v-.872zM6.991 35.848v-2.755c0-1.037-.648-1.735-1.691-1.744-.549-.01-1.115.165-1.51.78-.298-.486-.765-.78-1.422-.78-.459 0-.908.137-1.259.652v-.542H.174v4.389h.944v-2.433c0-.762.414-1.166 1.053-1.166.62 0 .935.413.935 1.157v2.442h.944v-2.433c0-.762.432-1.166 1.052-1.166.639 0 .944.413.944 1.157v2.442h.945z" fill="#fff"/><path fill-rule="evenodd" clip-rule="evenodd" d="M18.956 23.151h10.957V3.453H18.956V23.15z" fill="#FF5F00"/><path fill-rule="evenodd" clip-rule="evenodd" d="M19.63 13.305c0-3.995 1.88-7.552 4.804-9.845A12.556 12.556 0 0016.662.783C9.717.783 4.087 6.389 4.087 13.304c0 6.916 5.63 12.522 12.576 12.522 2.82.005 5.558-.939 7.772-2.677-2.925-2.293-4.804-5.85-4.804-9.845z" fill="#EB001B"/><path fill-rule="evenodd" clip-rule="evenodd" d="M44.783 13.305c0 6.915-5.631 12.521-12.576 12.521a12.555 12.555 0 01-7.772-2.677c2.925-2.293 4.803-5.85 4.803-9.845 0-3.994-1.878-7.55-4.803-9.844A12.555 12.555 0 0132.207.783c6.945 0 12.576 5.606 12.576 12.521z" fill="#F79E1B"/></svg>