<svg width="54" height="20" fill="none" xmlns="http://www.w3.org/2000/svg"><path fill-rule="evenodd" clip-rule="evenodd" d="M9.152.667c5.084 0 9.2 4.174 9.2 9.333 0 5.158-4.116 9.333-9.2 9.333-5.086 0-9.2-4.175-9.2-9.333 0-5.159 4.136-9.333 9.2-9.333z" fill="#53AE94"/><path d="M10.293 8.754V7.377h3.146V5.235H4.907v2.142h3.145v1.377c-2.52.13-4.439.635-4.439 1.246 0 .612 1.918 1.114 4.46 1.246v4.458h2.262v-4.523c2.543-.11 4.44-.635 4.44-1.246 0-.613-1.918-1.072-4.44-1.246m0 2.142h-2.26c-2.241-.11-3.922-.503-3.922-.962 0-.459 1.68-.874 3.922-.983v1.55h2.284V8.864c2.218.11 3.899.503 3.899.984 0 .48-1.68.852-3.922.984M27.06 1.752h-1.393v3.799c0 1.15-.625 1.9-1.557 1.9-.983 0-1.628-.75-1.628-1.9V1.752h-1.393v3.799c0 1.93 1.208 3.234 3.021 3.234 1.772 0 2.95-1.304 2.95-3.234V1.752zm3.891-.154c-1.608 0-2.611.863-2.611 2.095 0 1.344.983 1.796 1.802 1.97l1.454.278c.615.123.8.36.8.75 0 .492-.42.872-1.22.872-.778 0-1.351-.339-1.536-1.12l-1.464.299c.174 1.375 1.434 2.043 2.868 2.043 1.628 0 2.724-.832 2.724-2.166 0-1.068-.687-1.736-1.803-1.972L30.49 4.35c-.532-.103-.686-.348-.686-.698 0-.462.42-.852 1.117-.852.686 0 1.249.42 1.352 1.068l1.392-.287c-.266-1.224-1.32-1.982-2.714-1.982zm4.046.154v6.879h2.53c2.263 0 3.768-1.386 3.768-3.44 0-2.053-1.505-3.439-3.769-3.439h-2.53zm1.392 5.616V3.015h1.137c1.424 0 2.366.842 2.366 2.176 0 1.335-.942 2.177-2.366 2.177H36.39zM47.87 3.015V1.752h-5.96v1.263h2.283V8.63h1.393V3.015h2.284z" fill="#fff"/><path d="M26.363 16.265h-3.82v-1.561h3.502v-1.241h-3.502V11.91h3.8V10.65H21.15v6.878h5.213v-1.262zm7.363 1.262l-2.304-2.556c1.198-.175 1.966-.996 1.966-2.146 0-1.304-.983-2.176-2.458-2.176h-3.287v6.878h1.393v-2.524h.727l2.263 2.525h1.7zm-4.69-3.788V11.91h1.894c.646 0 1.076.37 1.076.915 0 .543-.43.913-1.076.913h-1.894zm8.807 2.638c-1.229 0-2.202-.985-2.202-2.289 0-1.304.973-2.28 2.202-2.28.953 0 1.772.524 2.028 1.715l1.352-.38c-.348-1.652-1.73-2.648-3.38-2.648-2.017 0-3.605 1.58-3.605 3.593 0 2.022 1.588 3.593 3.605 3.593 1.65 0 3.042-.985 3.38-2.751l-1.352-.277c-.256 1.2-1.075 1.724-2.028 1.724zm8.787-.112h-2.59l1.054-1.037c1.004-.986 1.495-1.633 1.495-2.588 0-1.273-.952-2.145-2.334-2.145-1.393 0-2.356.841-2.418 2.197l1.27.267c.062-.873.461-1.263 1.127-1.263.594 0 1.014.401 1.014.975 0 .77-.553 1.232-.973 1.653l-2.315 2.3v.903h4.67v-1.262zm3.77-5.77c-1.762 0-2.95 1.458-2.95 3.593 0 2.147 1.188 3.593 2.95 3.593 1.76 0 2.949-1.446 2.949-3.593 0-2.135-1.188-3.593-2.95-3.593zm0 5.903c-.943 0-1.537-.945-1.537-2.31 0-1.365.594-2.31 1.536-2.31.943 0 1.536.944 1.536 2.31 0 1.365-.593 2.31-1.536 2.31z" fill="#1AA88B"/></svg>