<svg width="92" height="36" fill="none" xmlns="http://www.w3.org/2000/svg"><path fill-rule="evenodd" clip-rule="evenodd" d="M5.263 19.088v1.681c0 2.341-.01 4.683.007 7.024.005.532-.13.81-.73.793a81.394 81.394 0 00-3.358-.003c-.494.007-.661-.198-.66-.686.01-5.226.01-10.452.003-15.678 0-.694.356-1.186.846-1.6 1.384-1.167 3.745-.771 4.63.802 1.212 2.156 2.3 4.378 3.373 6.607.14.29.302.57.458.862.32-.145.185-.395.186-.577.011-2.314.008-4.627.008-6.942 0-1.08 0-1.08 1.122-1.08.846 0 1.697.053 2.538-.016.814-.066 1.086.175 1.07 1.028-.053 2.938-.02 5.879-.02 8.818 0 2.04.003 4.083 0 6.125-.004 1.193-.613 2.127-1.615 2.496-1.07.393-2.132.086-2.935-.85-.465-.543-.8-1.167-1.125-1.795-1.207-2.343-2.41-4.69-3.612-7.034l-.186.025zm19.825-1.557a2.695 2.695 0 00-3.511.908c-.91 1.378-.855 3.352.128 4.685.852 1.152 2.43 1.473 3.825.766.852-.432 1.482-1.09 1.964-1.908.741-1.259.523-1.1 1.77-.493.709.346 1.408.717 2.112 1.07.365.184.544.402.34.843-1.715 3.718-5.146 6.209-9.691 5.403a6.203 6.203 0 01-3.298-1.704c-2.248-2.211-3.355-4.87-2.496-7.995.898-3.264 3.087-5.386 6.48-5.942 2.45-.401 4.64.38 6.387 2.206.625.653 1.106 1.415 1.603 2.163.265.397.213.66-.198.94a459.758 459.758 0 00-6.303 4.395c-.503.358-.823.39-1.15-.207a17.806 17.806 0 00-1.228-1.925c-.346-.476-.226-.771.217-1.06.823-.535 1.638-1.08 2.448-1.634.215-.147.503-.22.6-.51zm17.084 3.509c-.027-1.85-.976-2.93-2.552-2.904-1.515.026-2.719 1.365-2.706 3.01.012 1.61 1.168 2.816 2.685 2.804 1.198-.01 2.795-.913 2.573-2.91zm-2.688 7.867c-3.542.435-7.659-3.407-7.621-7.927.033-4.168 3.431-7.934 7.743-7.886 4.634.052 7.742 3.931 7.666 8.226-.088 4.877-4.415 7.927-7.788 7.587zm19.67-10.203c0-1.497.018-2.994-.01-4.49-.01-.53.178-.72.703-.708 1.173.023 2.348.028 3.521-.004.587-.015.733.223.73.772a669.273 669.273 0 00-.005 8.165c.003.877.51 1.468 1.26 1.54.727.068 1.35-.472 1.512-1.314.02-.106.033-.215.038-.325.027-.732.07-1.466.074-2.2.01-1.93.022-3.864-.005-5.795-.007-.613.175-.883.83-.861 1.117.037 2.238.024 3.357.003.557-.01.83.129.823.776-.033 2.858.085 5.72-.04 8.571-.162 3.714-2.74 6.243-6.197 6.08-1.009-.048-2.013.006-2.973-.415-2.29-1.004-3.59-3.128-3.658-5.796-.033-1.332-.006-2.666-.006-3.999h.047zm23.355 1.188c0-2.474-.006-4.95 0-7.424.009-3.076 2.35-5.41 5.436-5.424.874-.004 1.747.026 2.618.002.502-.014.754.106.736.675a68.305 68.305 0 00-.002 3.506c.011.478-.19.622-.63.607-.572-.017-1.145-.004-1.718 0-.331.002-.657.043-.9.305a1.066 1.066 0 00-.252 1.061c.1.315.474.173.728.179.708.018 1.419.029 2.126.003.502-.018.664.184.653.673a79.082 79.082 0 00-.002 3.427c.01.495-.178.685-.67.67-.737-.022-1.476.032-2.209-.017-.62-.042-.796.188-.792.789.026 2.882-.017 5.765.029 8.647.013.82-.206 1.106-1.054 1.047-1.112-.076-2.236-.041-3.353-.007-.55.016-.785-.138-.78-.726.023-2.665.01-5.328.01-7.993h.026zm-31.553 8.687c-.874 0-1.748-.026-2.62.008-.527.023-.74-.16-.729-.692a72.5 72.5 0 000-3.1c-.011-.49.174-.67.67-.66 1.144.027 2.29.008 3.435.008.191 0 .383.003.573-.005.288-.014.57-.103.651-.393.094-.337-.2-.463-.445-.584-.828-.416-1.67-.8-2.477-1.247-1.836-1.015-2.555-2.746-2.154-5.079.267-1.546 1.87-3.018 3.68-3.258 1.789-.237 3.595-.073 5.393-.088.378-.002.545.183.544.55a806.308 806.308 0 000 3.262c.002.437-.245.535-.635.529-1.063-.015-2.126-.004-3.19-.004-.332 0-.719-.02-.805.382-.092.417.304.533.591.663.992.452 1.964.94 2.887 1.521 1.579.993 2.355 2.828 1.935 4.567-.496 2.052-1.905 3.322-3.873 3.53-1.143.122-2.287.094-3.431.09zM77.7 15.18c1.021-1.21 2.086-1.804 3.489-1.702.547.04.781.188.765.765a65.247 65.247 0 00-.002 3.343c.01.499-.128.73-.676.765-2.184.144-2.94.218-2.93 3.34.007 2.011-.023 4.023.02 6.034.015.698-.238.888-.897.866a75.013 75.013 0 00-3.68-.007c-.482.008-.68-.152-.679-.658.014-4.594.014-9.188 0-13.782-.001-.524.248-.654.699-.65.982.006 1.965.033 2.944-.012.72-.034 1.092.17.952.951-.028.157-.003.322-.003.746" fill="#F60099"/></svg>