<svg width="113" height="36" fill="none" xmlns="http://www.w3.org/2000/svg"><path d="M19.554 8.922c-.078-.074-.234-.074-.312-.074-.857-.225-2.883-.3-3.585.224-.078.075-.233.224-.233.374a76.649 76.649 0 00-5.378 7.701L5.058 9.446V9.37c-.078-.15-.156-.224-.233-.374-.546-.448-2.338-.448-3.274-.299-.233 0-.467.075-.623.15a.972.972 0 00-.624.897V25.97c0 .299.156.897 1.17 1.046.311.075.7.075 1.013.075.7 0 2.26 0 2.26-1.121v-9.272c.311.523.935 1.495 1.636 2.691.935 1.72 1.559 2.767 1.949 3.29l.155.374c.156.225.39.449.624.673.545.3 1.169.374 1.792.3.156-.075.312-.075.39-.225a1.5 1.5 0 00.701-.673l.468-.748c.234-.373.701-1.196 1.48-2.617.78-1.42 1.404-2.392 1.793-3.065.624-.972 0 1.72 0 1.87v7.551c0 1.122 1.481 1.122 2.26 1.122.702 0 2.26 0 2.26-1.122V9.82a2.052 2.052 0 00-.701-.898zM25.01 15.353c-1.48 0-1.637.224-1.637.523v10.319c0 .299.234.523 1.637.523s1.636-.224 1.636-.523V15.876c0-.224-.233-.523-1.636-.523z" fill="#2D9DD3"/><path d="M25.01 27.391c-.702 0-2.26 0-2.26-1.122V15.876c0-1.122 1.48-1.122 2.26-1.122.701 0 2.26 0 2.26 1.122v10.319c-.078 1.196-1.559 1.196-2.26 1.196zm-1.013-1.271a9.189 9.189 0 002.026 0V16.026a9.177 9.177 0 00-2.026 0V26.12zM41.375 9.52h-9.43c-1.013 0-1.48.149-1.48.523v16.226c0 .299.233.523 1.636.523 1.403 0 1.637-.224 1.637-.524v-6.654h6.702c.546 0 .858-.598.858-1.42 0-.898-.312-1.422-.858-1.422h-6.702V12.51h7.637c.546 0 .858-.598.858-1.42 0-.972-.312-1.57-.858-1.57z" fill="#2D9DD3"/><path d="M32.18 27.391c-.702 0-2.26 0-2.26-1.121V10.044c0-1.047 1.246-1.047 2.103-1.122h9.43c.702 0 1.481.524 1.481 2.02 0 1.495-.78 2.018-1.48 2.018h-7.015v3.066h6.08c.7 0 1.48.523 1.48 2.019 0 1.495-.78 2.018-1.48 2.018h-6.08v6.132c-.078 1.196-1.558 1.196-2.26 1.196zm-1.014-1.27a9.177 9.177 0 002.026 0v-7.104h7.326c.078 0 .234-.3.234-.823 0-.523-.156-.822-.234-.822h-7.326v-5.459h8.261c.078 0 .234-.224.234-.822s-.234-.823-.234-.823h-9.43c-.311 0-.623 0-.857.075V26.12zM65.925 9.521c-1.403 0-1.637.299-1.637.523v10.693L56.573 9.82v-.075c-.39-.374-2.338-.299-2.806-.074-.156.074-.312.224-.312.373v16.151c0 .15 0 .524 1.637.524s1.637-.374 1.637-.524V15.503l7.715 10.916c.156.225.857.3 1.48.3.39 0 .858 0 1.248-.15.312-.075.39-.299.39-.448V10.043c0-.224-.156-.523-1.637-.523z" fill="#2D9DD3"/><path d="M65.925 27.391c-1.402 0-1.792-.299-2.026-.598l-6.546-9.346v8.748c0 1.122-1.481 1.122-2.26 1.122-.702 0-2.26 0-2.26-1.122V10.044c0-.449.311-.748.701-.897.468-.15 2.806-.374 3.507.224l.078.15 6.546 9.346v-8.823c0-1.122 1.559-1.122 2.26-1.122.702 0 2.26 0 2.26 1.122v16.15c0 .45-.39.898-.857.973-.39.15-.935.224-1.403.224zm-1.013-1.346c.312.075.702.15 1.013.15.39 0 .702 0 1.014-.075V10.194a9.176 9.176 0 00-2.027 0V22.68l-8.806-12.487a4.989 4.989 0 00-2.104 0V26.12a9.176 9.176 0 002.026 0V13.633l8.884 12.412zM73.484 9.52c-1.403 0-1.637.224-1.637.523v16.226c0 .299.234.523 1.637.523s1.637-.224 1.637-.524V10.043c0-.3-.156-.524-1.637-.524z" fill="#2D9DD3"/><path d="M73.484 27.391c-.701 0-2.26 0-2.26-1.121V10.044c0-1.122 1.481-1.122 2.26-1.122.702 0 2.26 0 2.26 1.122V26.27c0 1.121-1.48 1.121-2.26 1.121zm-1.013-1.27a9.177 9.177 0 002.027 0V10.193c-.312-.075-.702-.075-1.014-.075-.311 0-.701 0-1.013.075V26.12zM47.533 9.52c-1.403 0-1.637.224-1.637.523v16.226c0 .299.234.523 1.637.523 1.402 0 1.636-.224 1.636-.524V10.043c0-.3-.233-.524-1.636-.524z" fill="#2D9DD3"/><path d="M47.532 27.391c-.7 0-2.26 0-2.26-1.121V10.044c0-1.122 1.481-1.122 2.26-1.122.702 0 2.26 0 2.26 1.122V26.27c-.077 1.121-1.558 1.121-2.26 1.121zm-1.013-1.27a9.177 9.177 0 002.027 0V10.193a9.177 9.177 0 00-2.027 0V26.12zM92.5 9.52H79.33c-.312 0-.546.224-.546 1.57s.234 1.57.545 1.57h4.988v13.608c0 .3.234.524 1.637.524s1.636-.224 1.636-.524V12.66h4.988c.312 0 .546-.224.546-1.57-.078-1.346-.39-1.57-.624-1.57z" fill="#2D9DD3"/><path d="M85.876 27.391c-.701 0-2.26 0-2.26-1.121V13.26h-4.364c-1.17 0-1.17-1.421-1.17-2.17 0-.747 0-2.168 1.17-2.168h13.17c1.17 0 1.17 1.421 1.17 2.169s0 2.168-1.17 2.168h-4.364v13.01c.078 1.122-1.403 1.122-2.182 1.122zm-.935-1.27a9.177 9.177 0 002.026 0V12.062h5.378a8.115 8.115 0 000-1.944h-12.86a8.105 8.105 0 000 1.944h5.378V26.12h.078zM111.282 9.67c-.624-.224-2.884-.224-3.274.224l-4.13 6.132-4.13-6.132c-.39-.523-2.65-.448-3.274-.299-.311.075-.39.3-.39.449v.074l6.157 9.197v6.73c0 .15 0 .598 1.637.598s1.637-.448 1.637-.598v-6.73l6.156-9.197v-.074c0-.075-.078-.225-.389-.374z" fill="#2D9DD3"/><path d="M103.879 27.39c-.546 0-2.261 0-2.261-1.196v-6.58l-6.156-9.197v-.225c0-.448.39-.897.857-.972.623-.224 3.273-.373 3.975.449l3.585 5.309 3.584-5.384c.702-.822 3.43-.673 3.975-.448.468.15.779.523.779.972v.224l-6.156 9.197v6.58c.078 1.271-1.637 1.271-2.182 1.271zm-1.014-1.346c.702.15 1.325.15 2.027 0V19.24l6.078-9.048c-.623-.15-2.104-.074-2.493.15l-4.598 6.879-4.599-6.804c-.311-.225-1.792-.225-2.493-.15l6 9.048.078 6.73zM24.308 9.071h1.169c1.013 0 1.792.748 1.792 1.72v1.197c0 .972-.78 1.72-1.792 1.72h-1.17c-1.012 0-1.792-.748-1.792-1.72V10.79c0-.972.78-1.72 1.793-1.72z" fill="#2D9DD3"/></svg>