<svg xmlns="http://www.w3.org/2000/svg" xml:space="preserve" width="541" height="600" style="shape-rendering:geometricPrecision;text-rendering:geometricPrecision;image-rendering:optimizeQuality;fill-rule:evenodd;clip-rule:evenodd" viewBox="0 0 341 378"><defs><style>.fil0{fill:#fff}</style></defs><g id="Layer_x0020_1"><g id="_359090069744"><path class="fil0" d="M158 254v-30c6 1 11 1 17 1 34 0 64-9 86-24l-43 2c-5 1-8-1-11-4s-5-6-4-11c0-8 6-13 14-13h103c5 0 9 2 13 7 3 4 4 9 2 14l-16 60c-3 9-12 15-22 13l-5-1c-5-1-9-4-12-9-3-4-4-10-2-15l7-18c-28 17-67 28-109 28h-18zm0-185V48h18c37 0 72 8 99 23 4 2 6 5 6 9 1 4 0 7-3 10l-2 1c-4 4-10 5-15 2-22-15-52-25-86-25-6 0-11 1-17 1zM24 0h134v298H24c-13 0-24-10-24-23V24C0 11 11 0 24 0zm134 48v21c-58 5-103 38-103 78 0 39 45 72 103 77v30c-79-6-140-50-140-103S79 54 158 48zM55 350H23v8h23c-1 3-4 7-7 9s-7 4-12 3c-19-2-23-28-7-37 5-3 13-3 19 1 7 4-2 4 13 4-1-5-7-11-12-13-7-2-15-2-22 0-10 5-19 17-15 33 3 12 15 22 30 20 10-2 17-9 20-17 1-2 3-8 2-11zm226-1v-13c6 0 12 0 12 6 0 7-6 7-12 7zm-13 28h13v-17c1 1 9 15 10 17h16c-1-1-11-15-13-18 2-1 4-1 7-4 1-1 3-3 4-6 3-10-1-24-16-24-6-1-14-1-21-1v53zm-50-20c-18 0-12-1-16 4-4 3-8 5-14 3-13-4-13-24 1-27 5-1 9 0 13 4s-2 3 16 3c0-3-2-7-4-9-5-8-14-12-25-11-13 1-24 12-24 26 0 15 10 26 23 28 11 1 20-3 26-12 1-2 4-6 4-9zm-112 20h7v-45c1 1 11 29 12 34 1 2 4 10 5 11h5c2-5 6-17 8-23 2-3 3-7 5-11l4-11-1 45h8v-53h-12c-1 5-9 25-11 31 0 1-3 9-4 10l-15-40-11-1v53zm135-35c0 1 5 16 5 16h-10l5-16zm-25 35h13l3-8h17l3 8h14c0-1-9-24-10-26-2-5-3-9-5-13-1-3-4-12-5-14h-10l-10 27c-2 3-10 24-10 26zm124-33-15 1v-9h15v-11h-28v52h28v-12h-15v-9h15v-12zm-262-9c0 1 7 18 7 19H70c0-1 7-18 8-19zm-25 42h8l6-15h21c1 2 2 5 3 7 0 2 2 7 3 8h8c0-2-9-23-10-26-2-3-10-25-11-27h-7l-21 53zm287-33v12h-15v9h15v12h-28v-52h28v11c1 0 1 0 1-3 0-2 0-7-1-9h-28c0 1-1 51 0 53h28l1-12h-16v-9h15c1-1 1-4 1-6 0-1 0-5-1-6z"/></g></g></svg>